<svg width="149" height="24" viewBox="0 0 149 24" fill="none" xmlns="http://www.w3.org/2000/svg">
<path d="M10.8231 13.2559L8.06268 8.38344H6.87964V13.2559H4.37016V0.75236H9.06646C10.0344 0.75236 10.8589 0.925522 11.5401 1.27185C12.2212 1.60623 12.7291 2.066 13.0637 2.65117C13.4102 3.2244 13.5835 3.86928 13.5835 4.58581C13.5835 5.40983 13.3445 6.15621 12.8665 6.82498C12.3885 7.4818 11.6775 7.93561 10.7335 8.18639L13.7269 13.2559H10.8231ZM6.87964 6.50254H8.97684C9.65798 6.50254 10.1659 6.34132 10.5004 6.01888C10.835 5.6845 11.0023 5.22472 11.0023 4.63955C11.0023 4.06633 10.835 3.62446 10.5004 3.31397C10.1659 2.99153 9.65798 2.83031 8.97684 2.83031H6.87964V6.50254Z" fill="white"/>
<path d="M25.0845 8.07891C25.0845 8.43718 25.0606 8.75962 25.0128 9.04623H17.7533C17.813 9.76277 18.064 10.324 18.5061 10.7301C18.9483 11.1361 19.492 11.3391 20.1373 11.3391C21.0694 11.3391 21.7326 10.9391 22.1269 10.1389H24.8336C24.5468 11.0943 23.9971 11.8825 23.1845 12.5035C22.3719 13.1126 21.3741 13.4171 20.191 13.4171C19.2351 13.4171 18.3747 13.2081 17.6099 12.7901C16.857 12.3602 16.2655 11.7571 15.8353 10.9809C15.4171 10.2046 15.2079 9.30896 15.2079 8.29387C15.2079 7.26684 15.4171 6.3652 15.8353 5.58896C16.2536 4.81271 16.8391 4.2156 17.5919 3.79763C18.3448 3.37965 19.2112 3.17066 20.191 3.17066C21.1351 3.17066 21.9776 3.37368 22.7184 3.77971C23.4713 4.18575 24.0509 4.76495 24.4571 5.51731C24.8754 6.25772 25.0845 7.11159 25.0845 8.07891ZM22.4854 7.36238C22.4735 6.7175 22.2405 6.20398 21.7864 5.82183C21.3323 5.42774 20.7766 5.23069 20.1193 5.23069C19.498 5.23069 18.9722 5.42177 18.542 5.80392C18.1237 6.17413 17.8668 6.69362 17.7712 7.36238H22.4854Z" fill="white"/>
<path d="M26.2709 8.25805C26.2709 7.2549 26.4681 6.3652 26.8624 5.58896C27.2687 4.81271 27.8125 4.2156 28.4936 3.79763C29.1867 3.37965 29.9575 3.17066 30.8059 3.17066C31.5468 3.17066 32.1921 3.31994 32.7418 3.61849C33.3034 3.91705 33.7515 4.29323 34.0861 4.74703V3.33188H36.6135V13.2559H34.0861V11.8049C33.7635 12.2706 33.3154 12.6588 32.7418 12.9693C32.1801 13.2678 31.5289 13.4171 30.788 13.4171C29.9515 13.4171 29.1867 13.2021 28.4936 12.7722C27.8125 12.3423 27.2687 11.7392 26.8624 10.963C26.4681 10.1748 26.2709 9.27313 26.2709 8.25805ZM34.0861 8.29387C34.0861 7.68482 33.9666 7.16533 33.7276 6.73541C33.4886 6.29355 33.166 5.95917 32.7597 5.73227C32.3534 5.49342 31.9172 5.374 31.4512 5.374C30.9851 5.374 30.5549 5.48745 30.1606 5.71435C29.7663 5.94126 29.4436 6.27564 29.1927 6.7175C28.9537 7.14742 28.8342 7.66093 28.8342 8.25805C28.8342 8.85516 28.9537 9.38062 29.1927 9.83442C29.4436 10.2763 29.7663 10.6166 30.1606 10.8555C30.5669 11.0943 30.9971 11.2137 31.4512 11.2137C31.9172 11.2137 32.3534 11.1003 32.7597 10.8734C33.166 10.6345 33.4886 10.3002 33.7276 9.87025C33.9666 9.42838 34.0861 8.90293 34.0861 8.29387Z" fill="white"/>
<path d="M38.4192 8.25805C38.4192 7.2549 38.6163 6.3652 39.0107 5.58896C39.417 4.81271 39.9667 4.2156 40.6598 3.79763C41.3529 3.37965 42.1236 3.17066 42.9721 3.17066C43.6174 3.17066 44.2328 3.31397 44.8183 3.60058C45.4039 3.87525 45.8699 4.24546 46.2165 4.71121V0H48.7618V13.2559H46.2165V11.787C45.9058 12.2766 45.4696 12.6707 44.908 12.9693C44.3463 13.2678 43.695 13.4171 42.9542 13.4171C42.1177 13.4171 41.3529 13.2021 40.6598 12.7722C39.9667 12.3423 39.417 11.7392 39.0107 10.963C38.6163 10.1748 38.4192 9.27313 38.4192 8.25805ZM46.2344 8.29387C46.2344 7.68482 46.1149 7.16533 45.8759 6.73541C45.6369 6.29355 45.3143 5.95917 44.908 5.73227C44.5017 5.49342 44.0655 5.374 43.5994 5.374C43.1334 5.374 42.7032 5.48745 42.3089 5.71435C41.9145 5.94126 41.5919 6.27564 41.3409 6.7175C41.1019 7.14742 40.9824 7.66093 40.9824 8.25805C40.9824 8.85516 41.1019 9.38062 41.3409 9.83442C41.5919 10.2763 41.9145 10.6166 42.3089 10.8555C42.7152 11.0943 43.1454 11.2137 43.5994 11.2137C44.0655 11.2137 44.5017 11.1003 44.908 10.8734C45.3143 10.6345 45.6369 10.3002 45.8759 9.87025C46.1149 9.42838 46.2344 8.90293 46.2344 8.29387Z" fill="white"/>
<path d="M60.7129 3.33188L54.5647 17.9492H51.8939L54.0449 13.0051L50.0655 3.33188H52.8797L55.443 10.2643L58.0421 3.33188H60.7129Z" fill="white"/>
<path d="M70.6567 13.3813C69.7843 13.3813 68.9956 13.232 68.2906 12.9334C67.5975 12.6349 67.0478 12.2049 66.6415 11.6437C66.2352 11.0824 66.0261 10.4196 66.0141 9.65529H68.7029C68.7387 10.1688 68.918 10.5748 69.2406 10.8734C69.5752 11.1719 70.0293 11.3212 70.6029 11.3212C71.1884 11.3212 71.6485 11.1839 71.9831 10.9092C72.3177 10.6226 72.485 10.2524 72.485 9.79859C72.485 9.42838 72.3715 9.12386 72.1444 8.88501C71.9174 8.64617 71.6306 8.46106 71.284 8.3297C70.9494 8.18639 70.4834 8.03114 69.8859 7.86395C69.0733 7.62511 68.4101 7.39223 67.8962 7.16533C67.3944 6.92649 66.9582 6.57419 66.5877 6.10845C66.2292 5.63076 66.05 4.99782 66.05 4.20963C66.05 3.46922 66.2352 2.82433 66.6057 2.27499C66.9761 1.72565 67.4959 1.30767 68.1651 1.02106C68.8343 0.722504 69.5991 0.573227 70.4595 0.573227C71.7501 0.573227 72.7957 0.889695 73.5963 1.52263C74.4089 2.14363 74.857 3.01541 74.9407 4.13798H72.1803C72.1564 3.70806 71.9711 3.35576 71.6246 3.08109C71.29 2.79448 70.8419 2.65117 70.2802 2.65117C69.7903 2.65117 69.396 2.77657 69.0972 3.02735C68.8104 3.27814 68.667 3.64238 68.667 4.12007C68.667 4.45445 68.7746 4.73509 68.9897 4.96199C69.2167 5.17695 69.4916 5.35609 69.8142 5.49939C70.1488 5.63076 70.6148 5.78601 71.2123 5.96514C72.0249 6.20398 72.6881 6.44283 73.202 6.68167C73.7158 6.92052 74.158 7.27878 74.5284 7.75647C74.8989 8.23416 75.0841 8.86113 75.0841 9.63737C75.0841 10.3061 74.9108 10.9271 74.5643 11.5004C74.2177 12.0736 73.7099 12.5334 73.0407 12.8797C72.3715 13.2141 71.5768 13.3813 70.6567 13.3813Z" fill="white"/>
<path d="M86.491 8.07891C86.491 8.43718 86.4671 8.75962 86.4193 9.04623H79.1597C79.2195 9.76277 79.4704 10.324 79.9126 10.7301C80.3547 11.1361 80.8985 11.3391 81.5438 11.3391C82.4758 11.3391 83.1391 10.9391 83.5334 10.1389H86.2401C85.9533 11.0943 85.4036 11.8825 84.591 12.5035C83.7784 13.1126 82.7805 13.4171 81.5975 13.4171C80.6415 13.4171 79.7811 13.2081 79.0163 12.7901C78.2635 12.3602 77.672 11.7571 77.2418 10.9809C76.8235 10.2046 76.6144 9.30896 76.6144 8.29387C76.6144 7.26684 76.8235 6.3652 77.2418 5.58896C77.66 4.81271 78.2456 4.2156 78.9984 3.79763C79.7513 3.37965 80.6176 3.17066 81.5975 3.17066C82.5415 3.17066 83.384 3.37368 84.1249 3.77971C84.8778 4.18575 85.4573 4.76495 85.8636 5.51731C86.2819 6.25772 86.491 7.11159 86.491 8.07891ZM83.8919 7.36238C83.8799 6.7175 83.6469 6.20398 83.1928 5.82183C82.7387 5.42774 82.1831 5.23069 81.5258 5.23069C80.9044 5.23069 80.3786 5.42177 79.9484 5.80392C79.5302 6.17413 79.2733 6.69362 79.1777 7.36238H83.8919Z" fill="white"/>
<path d="M91.2444 5.39191V10.1927C91.2444 10.5271 91.3221 10.7719 91.4774 10.9271C91.6447 11.0704 91.9196 11.1421 92.302 11.1421H93.4671V13.2559H91.8897C89.7746 13.2559 88.717 12.2288 88.717 10.1748V5.39191H87.534V3.33188H88.717V0.877753H91.2444V3.33188H93.4671V5.39191H91.2444Z" fill="white"/>
<path d="M108.255 4.51416C107.968 3.9887 107.574 3.58864 107.072 3.31397C106.57 3.0393 105.984 2.90196 105.315 2.90196C104.574 2.90196 103.917 3.06915 103.343 3.40353C102.77 3.73792 102.322 4.2156 101.999 4.8366C101.676 5.45759 101.515 6.17413 101.515 6.9862C101.515 7.82215 101.676 8.55063 101.999 9.17163C102.333 9.79262 102.794 10.2703 103.379 10.6047C103.965 10.9391 104.646 11.1063 105.423 11.1063C106.379 11.1063 107.161 10.8555 107.771 10.3539C108.38 9.84039 108.78 9.12983 108.972 8.22222H104.67V6.30549H111.445V8.49092C111.278 9.3627 110.919 10.1688 110.37 10.9092C109.82 11.6496 109.109 12.2467 108.237 12.7006C107.376 13.1424 106.408 13.3633 105.333 13.3633C104.126 13.3633 103.033 13.0946 102.053 12.5572C101.085 12.0079 100.32 11.2496 99.7583 10.2823C99.2086 9.31493 98.9337 8.21625 98.9337 6.9862C98.9337 5.75615 99.2086 4.65747 99.7583 3.69015C100.32 2.71088 101.085 1.95255 102.053 1.41515C103.033 0.865811 104.12 0.59114 105.315 0.59114C106.725 0.59114 107.95 0.937464 108.99 1.63011C110.029 2.31082 110.746 3.27217 111.141 4.51416H108.255Z" fill="white"/>
<path d="M115.811 4.87243C116.134 4.34697 116.552 3.93496 117.066 3.63641C117.592 3.33785 118.189 3.18857 118.859 3.18857V5.82183H118.195C117.407 5.82183 116.809 6.00694 116.403 6.37715C116.009 6.74735 115.811 7.39223 115.811 8.31179V13.2559H113.302V3.33188H115.811V4.87243Z" fill="white"/>
<path d="M124.958 13.4171C124.002 13.4171 123.142 13.2081 122.377 12.7901C121.612 12.3602 121.009 11.7571 120.567 10.9809C120.137 10.2046 119.921 9.30896 119.921 8.29387C119.921 7.27878 120.143 6.38312 120.585 5.60687C121.039 4.83063 121.654 4.23352 122.431 3.81554C123.208 3.38562 124.074 3.17066 125.03 3.17066C125.986 3.17066 126.852 3.38562 127.629 3.81554C128.406 4.23352 129.015 4.83063 129.457 5.60687C129.912 6.38312 130.139 7.27878 130.139 8.29387C130.139 9.30896 129.906 10.2046 129.44 10.9809C128.985 11.7571 128.364 12.3602 127.575 12.7901C126.799 13.2081 125.926 13.4171 124.958 13.4171ZM124.958 11.2317C125.412 11.2317 125.837 11.1242 126.231 10.9092C126.637 10.6823 126.96 10.3479 127.199 9.90607C127.438 9.46421 127.557 8.92681 127.557 8.29387C127.557 7.35044 127.306 6.62793 126.805 6.12636C126.315 5.61284 125.711 5.35609 124.994 5.35609C124.277 5.35609 123.674 5.61284 123.184 6.12636C122.706 6.62793 122.467 7.35044 122.467 8.29387C122.467 9.23731 122.7 9.96578 123.166 10.4793C123.644 10.9809 124.241 11.2317 124.958 11.2317Z" fill="white"/>
<path d="M145.746 3.33188L142.842 13.2559H140.135L138.325 6.32341L136.514 13.2559H133.79L130.868 3.33188H133.413L135.17 10.8913L137.07 3.33188H139.723L141.587 10.8734L143.344 3.33188H145.746Z" fill="white"/>
<path d="M137.457 21.9951C137.177 22.032 136.922 22.032 136.642 22.0875L136.642 22.106C136.515 22.032 136.362 21.9951 136.183 21.9766C135.725 21.9396 135.241 21.9026 134.782 21.8656C134.731 21.8656 134.706 21.8841 134.731 21.9211C134.731 21.9396 134.757 21.9581 134.757 21.9581C135.011 22.032 135.292 22.106 135.572 22.1614C135.648 22.1799 135.725 22.1984 135.801 22.1984C136.285 22.1614 136.769 22.3094 137.254 22.3463C137.356 22.3463 137.457 22.3833 137.559 22.3833C138.094 22.3648 138.604 22.4573 139.139 22.5312C139.292 22.5497 139.419 22.5682 139.572 22.5682C140.031 22.5497 140.464 22.6236 140.897 22.7161C140.897 22.7161 140.923 22.7346 140.923 22.7531C140.642 22.8085 140.362 22.7715 140.082 22.7346C139.521 22.6421 138.961 22.6236 138.375 22.6052C138.222 22.6052 138.094 22.6052 137.942 22.5867C137.483 22.4942 137.024 22.4757 136.54 22.4573C136.489 22.4573 136.464 22.4757 136.464 22.4942C136.464 22.5127 136.489 22.5312 136.489 22.5312C136.795 22.6236 137.101 22.6976 137.432 22.6791C137.61 22.6791 137.789 22.6791 137.993 22.6791C138.196 22.6791 138.4 22.7161 138.528 22.8455C138.655 22.9749 138.782 22.9749 138.935 22.9379C139.139 22.8825 139.343 22.8825 139.521 22.8455C139.674 22.827 139.853 22.827 140.005 22.8825C140.158 22.9379 140.311 22.9379 140.49 22.9379C140.566 22.9379 140.642 22.9564 140.693 23.0119C140.719 23.0489 140.77 23.0858 140.795 23.1043C141.05 23.1968 141.305 23.2892 141.611 23.2892C141.84 23.2892 142.044 23.3262 142.273 23.3631C142.655 23.4186 143.038 23.4741 143.42 23.4926C143.726 23.511 144.031 23.5665 144.312 23.6035C144.439 23.622 144.541 23.6405 144.668 23.6405C145.407 23.6589 146.121 23.8253 146.834 23.8623C146.86 23.8623 146.885 23.9178 146.885 23.9363C146.885 23.9548 146.834 23.9732 146.809 23.9917C146.783 23.9917 146.732 24.0102 146.681 23.9917C146.452 23.9732 146.223 23.9732 146.019 23.9548C145.535 23.9178 145.051 23.8623 144.566 23.8253C144.108 23.7884 143.624 23.7514 143.165 23.6959C142.885 23.6774 142.604 23.6589 142.324 23.6405C142.222 23.6405 142.12 23.6405 142.018 23.6035C141.713 23.5295 141.381 23.5295 141.05 23.5295C140.388 23.5295 139.751 23.4741 139.088 23.4371C138.986 23.4371 138.884 23.4186 138.782 23.4186C138.579 23.4186 138.375 23.4001 138.171 23.3631C137.916 23.3077 137.661 23.2892 137.381 23.2707C136.948 23.2522 136.54 23.2337 136.107 23.1968C135.699 23.1598 135.292 23.1043 134.909 23.0673C134.553 23.0304 134.17 23.0119 133.814 22.9934C133.483 22.9749 133.177 22.9564 132.846 22.9194C132.54 22.8825 132.234 22.864 131.928 22.8455C130.96 22.7715 129.992 22.7161 128.998 22.6421C128.565 22.6052 128.157 22.5682 127.724 22.5312C127.112 22.4942 126.501 22.4573 125.889 22.4018C125.125 22.3463 124.361 22.2909 123.571 22.2724C123.112 22.2724 122.679 22.2169 122.246 22.1614C122.016 22.143 121.813 22.1245 121.583 22.106C121.15 22.0875 120.742 22.069 120.309 22.032C120.156 22.032 120.029 22.0135 119.876 22.0135C119.519 22.032 119.137 21.9951 118.78 21.9581C118.449 21.9211 118.143 21.9211 117.812 21.9026C117.252 21.8841 116.666 21.8472 116.105 21.8287C115.952 21.8287 115.774 21.8287 115.621 21.8102C115.086 21.7547 114.525 21.7362 113.965 21.7362C113.786 21.7362 113.608 21.7177 113.404 21.7177C112.869 21.6808 112.359 21.6438 111.824 21.6438C111.646 21.6438 111.468 21.6438 111.264 21.6253C110.78 21.5698 110.296 21.5883 109.811 21.5698C109.353 21.5514 108.92 21.5329 108.461 21.5144C108.13 21.4959 107.798 21.4959 107.493 21.4774C107.034 21.4589 106.601 21.4404 106.142 21.4219C106.015 21.4219 105.887 21.4035 105.785 21.4035C105.148 21.4404 104.511 21.385 103.9 21.385C103.543 21.385 103.161 21.348 102.804 21.348C102.142 21.3295 101.454 21.311 100.791 21.2925C100.333 21.274 99.8996 21.274 99.4409 21.2556C99.1861 21.2371 98.9058 21.2371 98.651 21.2556C98.5236 21.274 98.3962 21.274 98.2943 21.2556C98.0395 21.2186 97.7592 21.2186 97.5044 21.2186C96.9438 21.2001 96.3578 21.1816 95.7972 21.1816C95.6953 21.1816 95.5934 21.1631 95.4915 21.1631C94.9819 21.2001 94.4723 21.1631 93.9627 21.1631C93.3766 21.1631 92.7906 21.1816 92.179 21.1816C91.7968 21.1816 91.4146 21.1631 91.007 21.1631C90.8541 21.1631 90.6757 21.1446 90.5228 21.1631C90.1661 21.2001 89.8349 21.1816 89.4781 21.1631C89.0195 21.1446 88.5863 21.1077 88.1277 21.1631C88.0767 21.1631 88.0003 21.1631 87.9493 21.1631C87.083 21.1077 86.1912 21.1631 85.3249 21.1446C84.5095 21.1261 83.6941 21.1261 82.8788 21.1261C82.3182 21.1261 81.7321 21.1631 81.1716 21.1261C80.1269 21.1631 79.0822 21.1261 78.063 21.1816C77.4005 21.2186 76.7125 21.2001 76.05 21.2001C75.7952 21.2001 75.515 21.2001 75.2602 21.2001C74.5977 21.2001 73.9097 21.2186 73.2472 21.2371C72.7376 21.2371 72.228 21.2371 71.7184 21.2556C70.8011 21.2925 69.8838 21.2925 68.9665 21.2925C68.7117 21.2925 68.4314 21.2925 68.1766 21.311C67.2848 21.3295 66.393 21.348 65.4757 21.3295C65.3229 21.3295 65.1445 21.3295 64.9916 21.348C64.1508 21.4035 63.2844 21.4035 62.4181 21.4219C61.7556 21.4404 61.1186 21.4404 60.4561 21.4589C60.1758 21.4589 59.8956 21.4774 59.6153 21.385C59.5388 21.3665 59.4369 21.3665 59.386 21.385C59.0802 21.4959 58.749 21.4959 58.4177 21.4959C57.6533 21.5144 56.9144 21.5144 56.15 21.5329C55.7678 21.5329 55.3856 21.5514 55.0034 21.5698C54.876 21.5698 54.7486 21.5698 54.6466 21.5883C54.3918 21.5883 54.2135 21.5329 54.188 21.3295C54.188 21.3295 54.1115 21.311 54.0861 21.311C54.0606 21.311 54.0606 21.3295 54.0351 21.348C53.9841 21.5514 53.8058 21.6068 53.551 21.6068C52.9904 21.6068 52.4553 21.6253 51.8948 21.6438C50.7227 21.6808 49.5761 21.7177 48.404 21.7177C48.0473 21.7177 47.665 21.7547 47.3083 21.7547C46.5184 21.7732 45.7285 21.7917 44.9132 21.8102C44.7858 21.8102 44.6584 21.8102 44.5565 21.8287C43.843 21.8841 43.1296 21.8841 42.4161 21.8841C41.5753 21.9026 40.7344 21.9396 39.9191 21.9581C39.6388 21.9581 39.3585 21.9766 39.0527 21.9766C38.1864 21.9951 37.2946 22.0135 36.4283 22.0505C36.1735 22.0505 35.8932 22.0875 35.6384 22.106C35.0014 22.143 34.3644 22.106 33.7528 22.1245C33.498 22.143 33.2687 22.143 33.0139 22.106C32.912 22.0875 32.8101 22.0875 32.7081 22.106C32.0966 22.1614 31.4851 22.106 30.8736 22.1245C30.2875 22.143 29.7015 22.1245 29.0899 22.143C28.5039 22.143 27.9179 22.1614 27.3063 22.1799C27.128 22.1799 26.9241 22.1799 26.7712 22.2169C26.5419 22.2539 26.3381 22.3093 26.1088 22.2724C25.8794 22.2539 25.6756 22.2909 25.4463 22.2354C25.3444 22.1984 25.1915 22.2169 25.0895 22.2354C24.478 22.3278 23.841 22.3093 23.204 22.3093C22.4396 22.3093 21.7007 22.3093 20.9363 22.3093C20.4267 22.3093 19.9171 22.3093 19.4075 22.3093C18.6685 22.2909 17.9296 22.3278 17.2161 22.2724C17.1397 22.2724 17.0633 22.2724 16.9613 22.2724C16.3498 22.3463 15.7383 22.2724 15.1268 22.2539C14.9739 22.2539 14.7955 22.2354 14.6427 22.2354C14.1076 22.2539 13.5725 22.2354 13.0629 22.2354C12.8845 22.2354 12.7061 22.2354 12.5023 22.2354C12.3239 22.2354 12.1456 22.2354 11.9417 22.2354C11.4831 22.1984 10.999 22.1984 10.5403 22.1984C10.1071 22.1799 9.674 22.1799 9.26631 22.1614C8.57834 22.143 7.89038 22.106 7.20241 22.0875C6.28513 22.0505 5.36784 22.032 4.45055 21.9766C3.71162 21.9396 2.94722 21.8656 2.20828 21.8102C1.92801 21.7917 1.6477 21.7177 1.36743 21.6808C1.01071 21.6253 0.730438 21.4959 0.424667 21.3665C0.271789 21.311 0.169861 21.2001 0.144378 21.0892C0.0934141 20.9413 0.042465 20.7934 0.0169828 20.6639C-0.00849934 20.3866 -0.0339662 20.1093 0.169876 19.8505C0.195343 19.795 0.220825 19.7396 0.246307 19.6841C0.348221 19.4438 0.526581 19.2774 0.832352 19.148C1.01071 19.074 1.18907 19.0185 1.4184 19.037C1.67319 19.037 1.95349 19.0555 2.20828 19.0555C2.33569 19.0555 2.46309 19.0555 2.565 19.037C2.84529 18.9631 3.12556 18.9816 3.40585 19.0001C3.55873 19.0185 3.73709 19.0185 3.88998 19.0185C4.04286 19.0185 4.22122 19.0185 4.37411 18.9631C4.60344 18.8706 4.83275 18.8522 5.08755 18.8706C5.87744 18.8891 6.66731 18.8706 7.48268 18.9076C7.96681 18.9261 8.45094 18.9076 8.93506 18.9261C9.18986 18.9261 9.47015 18.9446 9.72496 18.9446C10.0817 18.9446 10.4129 18.9631 10.7697 18.9631C11.5341 18.9816 12.3239 18.9446 13.0883 19.0185C13.1138 19.0185 13.1393 19.0185 13.1393 19.0185C13.2412 19.0185 13.3177 18.9816 13.3431 18.8891C13.3431 18.8152 13.4196 18.7967 13.496 18.7782C13.547 18.7782 13.6234 18.7597 13.6744 18.7782C14.133 18.8152 14.6172 18.8152 15.0758 18.8152C15.509 18.8152 15.9167 18.8706 16.3498 18.8337C16.4518 18.8337 16.5536 18.8337 16.6556 18.8152C16.8849 18.7412 17.1397 18.7597 17.369 18.7967C17.5474 18.8152 17.7258 18.8152 17.9041 18.7967C18.108 18.7782 18.3118 18.7782 18.5157 18.7782C18.6176 18.7782 18.7195 18.7782 18.8214 18.7967C19.1526 18.8891 19.4839 18.8706 19.8406 18.8706C20.3247 18.8522 20.8089 18.8706 21.3185 18.8891C21.3439 18.8891 21.3694 18.8891 21.3694 18.9076C21.3949 18.9446 21.3694 18.9631 21.3185 18.9631C21.2675 18.9816 21.1911 18.9816 21.1401 19.0001C21.1401 19.0001 21.1146 19.0185 21.1146 19.037C21.1146 19.0555 21.1146 19.074 21.1401 19.074C21.1656 19.0925 21.2166 19.111 21.242 19.111C21.4204 19.111 21.5988 19.111 21.7771 19.111C21.8536 19.111 21.93 19.074 21.9555 19.0185C22.0319 18.8522 22.2103 18.7967 22.4141 18.7782C22.7454 18.7597 23.0511 18.7227 23.3824 18.7597C23.5098 18.7782 23.6372 18.7782 23.7391 18.7597C23.892 18.7412 24.0703 18.7412 24.2232 18.7782C24.2997 18.7967 24.3761 18.7967 24.478 18.7782C24.6564 18.7597 24.8347 18.7412 25.0131 18.7782C25.0895 18.7967 25.166 18.7782 25.2424 18.7597C25.3698 18.7597 25.4972 18.7227 25.5992 18.7412C26.1597 18.7967 26.6948 18.7227 27.2554 18.7412C28.3255 18.7597 29.3702 18.6858 30.4404 18.7227C30.4914 18.7227 30.5678 18.7227 30.6188 18.7227C31.8163 18.6488 33.0139 18.6673 34.2115 18.6303C34.5172 18.6303 34.823 18.6118 35.1288 18.6303C35.409 18.6488 35.6893 18.6303 35.9696 18.5933C36.1989 18.5748 36.4028 18.5564 36.6321 18.5564C37.371 18.5379 38.11 18.5194 38.8234 18.4824C38.9763 18.4824 39.1037 18.4824 39.2566 18.4824C39.3585 18.4824 39.4604 18.5009 39.5623 18.4824C40.1229 18.4269 40.7089 18.4454 41.2695 18.4454C41.5243 18.4454 41.8046 18.4454 42.0594 18.4269C42.3652 18.4085 42.6709 18.39 42.9767 18.4085C43.0531 18.4085 43.1296 18.4085 43.2315 18.4085C43.5372 18.39 43.843 18.3715 44.1488 18.3715C44.4545 18.353 44.7603 18.353 45.0661 18.2975C45.2189 18.2606 45.3973 18.2421 45.5502 18.279C45.8814 18.3345 46.1872 18.2975 46.5184 18.2975C46.8497 18.2975 47.1809 18.2975 47.4867 18.2975C48.0473 18.279 48.5823 18.2606 49.1429 18.2606C49.3467 18.2606 49.5506 18.2421 49.7544 18.2975C49.7799 18.2975 49.7799 18.316 49.7799 18.3345C49.7799 18.353 49.7799 18.3715 49.7799 18.3715C49.7544 18.39 49.729 18.4085 49.678 18.4269C49.4742 18.4639 49.2703 18.4639 49.0665 18.4454C48.6078 18.4269 48.1237 18.4824 47.665 18.4085C47.3848 18.4269 47.1045 18.4639 46.8242 18.4824C46.6713 18.5009 46.5184 18.5194 46.391 18.5009C46.1362 18.4454 45.9069 18.4824 45.6776 18.5194C45.5502 18.5379 45.4228 18.5379 45.3209 18.5379C44.8622 18.5379 44.4291 18.5564 43.9704 18.5564C43.8685 18.5564 43.7666 18.5379 43.6646 18.5379C43.4099 18.5194 43.1296 18.5194 42.8748 18.5564C42.6964 18.5933 42.518 18.5933 42.3397 18.5933C41.7791 18.5564 41.1931 18.6118 40.6325 18.6118C40.5051 18.6118 40.3777 18.6303 40.2758 18.6488C39.97 18.7227 39.6388 18.7227 39.3075 18.7227C39.0782 18.7227 38.8489 18.7227 38.645 18.7227C38.5686 18.7227 38.4922 18.7412 38.3902 18.7412C38.4412 18.7597 38.4667 18.7967 38.4922 18.7967C38.8998 18.7967 39.3075 18.7967 39.7152 18.7967C39.9955 18.7967 40.2758 18.7967 40.6325 18.8152C40.3013 18.9631 40.021 19.037 39.7152 19.0001C39.4604 18.9631 39.1801 18.9631 38.9253 19.0185C38.7215 19.0555 38.5176 19.037 38.3138 19.0185C38.1354 19.0001 37.9571 19.0001 37.7787 19.037C37.5749 19.0925 37.371 19.0925 37.1672 19.037C36.8869 18.9816 36.6066 18.9816 36.3263 19.0185C36.0461 19.037 35.7658 19.0555 35.4855 19.0555C35.1288 19.037 34.7466 19.0555 34.3898 19.0925C33.9567 19.1295 33.549 19.1664 33.1158 19.111C33.0139 19.0925 32.912 19.111 32.8101 19.111C32.3514 19.148 31.8673 19.1849 31.4086 19.1849C31.2558 19.1849 31.1284 19.2034 31.0264 19.2959C30.6442 19.2774 30.6442 19.2774 30.4914 19.3328C30.6697 19.3698 30.8481 19.3513 31.001 19.2959C31.1029 19.3328 31.2303 19.3698 31.3577 19.3698C32.0711 19.3328 32.7846 19.3698 33.498 19.3698C34.186 19.3698 34.874 19.3513 35.5619 19.3143C35.8167 19.2959 36.0461 19.2959 36.3009 19.2959C36.5557 19.2959 36.785 19.2774 37.0398 19.2774C37.3456 19.2589 37.6513 19.2404 37.9571 19.2589C38.1354 19.2589 38.3138 19.2404 38.5176 19.2404C38.7724 19.2404 39.0018 19.2034 39.2566 19.2404C39.3585 19.2589 39.4604 19.2404 39.5623 19.2404C39.9445 19.2034 40.3267 19.1849 40.7089 19.2034C40.9128 19.2034 41.1166 19.2034 41.3205 19.2034C41.4988 19.2034 41.6772 19.2034 41.881 19.2034C42.0594 19.2034 42.1868 19.2774 42.2632 19.3883C42.2632 19.4068 42.2887 19.4068 42.3142 19.4253C42.3397 19.4253 42.3652 19.4438 42.3652 19.4253C42.5435 19.3883 42.6964 19.3328 42.8748 19.2959C42.9257 19.2774 42.9002 19.2404 42.8748 19.2219C42.8238 19.2034 42.7983 19.1664 42.8493 19.1664C43.0786 19.148 43.3079 19.148 43.5118 19.148C43.7921 19.148 44.0723 19.148 44.3526 19.111C44.5565 19.0925 44.7603 19.0925 44.9641 19.0925C45.0915 19.0925 45.2189 19.074 45.2954 19.0185C45.3209 19.0001 45.3464 18.9631 45.3464 18.9446C45.3464 18.9261 45.3209 18.8891 45.2954 18.8706C45.2699 18.8522 45.2189 18.8522 45.168 18.8522C45.0151 18.8522 44.8877 18.8522 44.7348 18.8706C44.4291 18.8891 44.1233 18.9446 43.8175 18.9446C43.5372 18.9631 43.257 18.9446 42.9767 18.9261C42.7219 18.9076 42.4416 18.9076 42.1868 18.9446C41.932 18.9816 41.6517 18.9631 41.3969 18.9446C41.3714 18.9446 41.3459 18.9261 41.3459 18.9076C41.3714 18.8891 41.3714 18.8522 41.3969 18.8522C41.4988 18.8337 41.6007 18.8152 41.7027 18.8152C42.2123 18.7967 42.7219 18.7967 43.2315 18.7967C43.894 18.7967 44.531 18.7782 45.1935 18.7782C45.5757 18.7782 45.9579 18.7782 46.3401 18.7043C46.5439 18.6673 46.6968 18.7597 46.8752 18.7782C46.9261 18.7782 46.9516 18.8152 46.9261 18.8522C46.9261 18.8706 46.9006 18.8891 46.8752 18.8891C46.7987 18.9076 46.7223 18.9261 46.6458 18.9261C46.442 18.9076 46.2382 18.8706 46.0343 18.9076C45.9834 18.9076 45.9069 18.9261 45.8814 18.9816C45.8559 19.0185 45.9324 19.0555 46.0088 19.074C46.0598 19.074 46.0853 19.074 46.1362 19.074C46.1872 19.074 46.2127 19.074 46.2636 19.074C46.8242 19.074 47.4102 19.0925 47.9708 19.0925C48.0218 19.0925 48.0472 19.0925 48.0982 19.111C48.1237 19.1295 48.1747 19.148 48.1747 19.1664C48.1747 19.1849 48.1492 19.2219 48.1237 19.2404C48.0982 19.2774 48.0472 19.2959 47.9708 19.3513C48.0982 19.3513 48.1747 19.3513 48.2511 19.3513C48.353 19.3698 48.4549 19.3328 48.5059 19.2774C48.6588 19.0925 48.9136 19.037 49.1684 19.0001C49.4996 18.9631 49.8564 18.9076 50.1876 18.9816C50.3405 19.0185 50.5188 19.0001 50.6717 19.0001C51.003 19.0001 51.3342 18.9816 51.64 18.9631C51.8183 18.9631 51.9967 18.9816 52.175 19.0185C52.3789 19.074 52.5573 19.074 52.7611 19.0001C52.8375 18.9631 52.9649 18.9446 53.0414 18.9631C53.2452 18.9816 53.4491 18.9446 53.6529 18.9076C53.7803 18.8891 53.9332 18.8891 54.0606 18.9446C53.9587 19.0555 53.8058 19.0925 53.6529 19.111C53.551 19.1295 53.4491 19.1295 53.3471 19.148C53.3217 19.148 53.3217 19.1849 53.2962 19.2034C53.2962 19.2034 53.3217 19.2219 53.3471 19.2219C53.6019 19.2589 53.8313 19.2589 54.0606 19.2034C54.1625 19.1849 54.2135 19.0925 54.1625 19.0185C54.137 18.9816 54.0861 18.9446 54.0606 18.9076C54.188 18.9261 54.3409 18.9446 54.4683 18.9631C54.5447 18.9816 54.6212 18.9446 54.6721 18.9076C54.6976 18.9261 54.7231 18.9446 54.7486 18.9631C54.9014 19.0555 55.0798 19.074 55.2582 19.0001C55.3856 18.9261 55.5384 18.8891 55.7168 18.8891C56.1755 18.8522 56.6086 18.8706 57.0673 18.8706C57.2711 18.8706 57.373 18.9076 57.3985 19.0555C57.3985 19.0925 57.4495 19.0925 57.5004 19.074C57.5259 19.0555 57.5769 19.037 57.5769 19.0001C57.6788 18.8337 57.8317 18.7967 58.061 18.7967C58.2393 18.7967 58.3668 18.8522 58.4177 18.9816C58.4432 19.037 58.5196 19.037 58.5706 19.0001C58.7235 18.8337 58.9273 18.7782 59.1821 18.7782C59.5134 18.7782 59.8446 18.7597 60.1504 18.7597C60.2013 18.7597 60.2778 18.7597 60.3287 18.7597C60.4561 18.7782 60.5581 18.8152 60.609 18.9076C60.6345 18.9446 60.66 18.9816 60.7364 18.9816C60.8129 18.9816 60.8383 18.9446 60.8638 18.9076C60.8893 18.8706 60.8893 18.8152 60.9148 18.7782C60.9403 18.7412 60.9912 18.6858 61.0422 18.6858C61.2715 18.6673 61.5263 18.6303 61.7556 18.6858C62.0869 18.7597 62.3926 18.7597 62.7239 18.6858C62.9022 18.6488 63.0806 18.6303 63.259 18.6488C63.5902 18.6673 63.9214 18.6673 64.2272 18.6673C64.431 18.6673 64.6349 18.6488 64.8387 18.6303C64.9152 18.6303 64.9661 18.5748 64.9152 18.5009C64.9152 18.4639 64.8897 18.4454 64.8642 18.4269C64.8642 18.3715 64.8642 18.3345 64.9407 18.316C65.0171 18.2975 65.0935 18.2606 65.17 18.2606C65.3483 18.2421 65.5267 18.2606 65.7305 18.2606C65.8325 18.2606 65.9344 18.279 66.0363 18.2606C66.3166 18.2051 66.5714 18.2421 66.7752 18.353C66.6988 18.3715 66.5969 18.353 66.4695 18.353C66.3421 18.353 66.2147 18.353 66.1128 18.3715C65.9854 18.3715 65.8579 18.39 65.756 18.39C65.6286 18.4085 65.5522 18.4639 65.5522 18.5194C65.5522 18.5748 65.6286 18.6488 65.756 18.6488C66.0618 18.6488 66.3675 18.6488 66.6733 18.6488C66.6988 18.6488 66.7497 18.6673 66.7752 18.6858L66.7752 18.7227C66.6478 18.7412 66.495 18.7597 66.3676 18.7782C66.3166 18.7782 66.2656 18.8152 66.2147 18.8337C66.2147 18.8337 66.1892 18.8706 66.2147 18.8706C66.3676 18.9261 66.5204 18.9631 66.6733 18.9261C66.9026 18.8891 67.1065 18.8337 67.3358 18.8337C67.3613 18.8337 67.3868 18.7967 67.3868 18.7782C67.3868 18.7227 67.3868 18.6858 67.4632 18.6858C67.5396 18.6858 67.6161 18.6858 67.6925 18.6858C67.718 18.6858 67.769 18.7043 67.7944 18.7412C67.9728 18.9261 68.2021 18.9816 68.4824 18.9261C68.6098 18.9076 68.7117 18.9076 68.8391 18.8891C68.8646 18.8891 68.8901 18.8337 68.8646 18.8152C68.8646 18.7782 68.8137 18.7227 68.8391 18.6858C68.8646 18.6488 68.9411 18.6303 68.992 18.6303C69.2213 18.5933 69.4761 18.5933 69.7055 18.6303C69.7309 18.6303 69.7564 18.6858 69.7309 18.7043C69.7055 18.7227 69.6545 18.7412 69.629 18.7597C69.6035 18.7782 69.5781 18.8152 69.6035 18.8337C69.6035 18.8522 69.6545 18.8891 69.68 18.8891C69.8329 18.8891 70.0112 18.8706 70.1131 18.7782C70.2151 18.6858 70.317 18.6303 70.4699 18.6303C70.7756 18.5933 71.0814 18.5748 71.3872 18.5379C71.591 18.5194 71.7948 18.5379 71.9732 18.5933C72.1006 18.6303 72.1516 18.6673 72.1261 18.6858C72.0751 18.7412 71.9987 18.7412 71.9222 18.7597C71.7948 18.7782 71.6674 18.7782 71.5655 18.7782C71.54 18.7782 71.5146 18.7967 71.4636 18.8152C71.7948 18.8337 72.1261 18.8706 72.4318 18.8891C72.5847 18.8891 72.7121 18.8891 72.865 18.8706C73.1453 18.8522 73.4256 18.8337 73.7059 18.8522C73.8333 18.8706 73.9352 18.8337 74.0626 18.8337C74.1645 18.8152 74.19 18.7782 74.139 18.6858C74.1135 18.6488 74.1135 18.6303 74.1645 18.6118C74.19 18.6118 74.2409 18.5933 74.2919 18.5933C74.4958 18.6118 74.6996 18.6118 74.9034 18.5933C75.0563 18.5748 75.2347 18.5933 75.3876 18.5933C75.5659 18.5933 75.6933 18.6303 75.7952 18.7412C75.9226 18.8706 76.101 18.8152 76.2284 18.7597C76.3048 18.7227 76.3558 18.6488 76.4323 18.5933C76.5851 18.5009 76.7635 18.4454 76.9419 18.4824C77.2476 18.5564 77.5279 18.5748 77.8337 18.5564C77.9101 18.5564 77.9865 18.5748 78.063 18.5748C78.1394 18.5748 78.1394 18.6118 78.1139 18.6673C78.063 18.7782 78.0885 18.8337 78.2413 18.8337C78.649 18.8337 79.0567 18.8152 79.4644 18.8152C79.5663 18.8152 79.6937 18.7967 79.7192 18.7043C79.7702 18.5933 79.8466 18.5748 79.9995 18.5748C80.0504 18.5748 80.1269 18.5748 80.1778 18.5933C80.2288 18.5933 80.2288 18.6303 80.2288 18.6673C80.2033 18.7412 80.3053 18.7782 80.3562 18.7967C80.5346 18.8522 80.7129 18.7967 80.8658 18.7227C80.8658 18.7227 80.8403 18.6673 80.8148 18.6488C80.7894 18.6118 80.7894 18.5933 80.8403 18.5748C81.1206 18.5194 81.4009 18.5564 81.6557 18.6673L81.6557 18.6488C81.7067 18.7227 81.7831 18.7782 81.9105 18.7412L81.885 18.7597C82.0634 18.7597 82.2418 18.7227 82.4201 18.7412C82.5985 18.7597 82.7768 18.7967 82.9552 18.8152C83.0061 18.8152 83.1081 18.7782 83.1081 18.7597C83.1081 18.7412 83.0826 18.7043 83.0571 18.7043C83.0316 18.6858 82.9807 18.6858 82.9552 18.6673C82.9552 18.6673 82.9297 18.6488 82.9297 18.6303C82.9297 18.6118 82.9552 18.5933 82.9552 18.5933C83.2355 18.5748 83.5158 18.5564 83.796 18.5379C83.9489 18.5194 84.0763 18.5748 84.1273 18.6858C84.1528 18.7597 84.2547 18.7967 84.3566 18.8152C84.484 18.8337 84.6114 18.8337 84.7133 18.8337C85.2484 18.8337 85.809 18.8337 86.3441 18.8337C86.5224 18.8337 86.7008 18.8152 86.8792 18.7597C86.9046 18.7597 86.9301 18.7412 86.9301 18.7412C86.9556 18.7043 86.9301 18.6858 86.8792 18.6858C86.6498 18.6673 86.395 18.6673 86.1657 18.6488C86.1657 18.6488 86.1402 18.6303 86.1402 18.6118C86.1402 18.5933 86.1657 18.5748 86.1657 18.5748C86.2421 18.5564 86.3186 18.5379 86.395 18.5564C86.6244 18.5933 86.8282 18.6118 87.0575 18.5748C87.1849 18.5564 87.3378 18.5933 87.4652 18.5933C87.5926 18.5933 87.6945 18.6118 87.8219 18.6303C87.8219 18.6858 87.7964 18.7227 87.7964 18.7597C87.8219 18.7967 87.8729 18.8337 87.9238 18.8337C88.0512 18.8522 88.2041 18.8706 88.3315 18.8891C88.357 18.8891 88.3825 18.9261 88.408 18.9261C88.3825 18.9446 88.3315 18.9446 88.306 18.9631C88.2551 18.9816 88.2041 18.9816 88.1277 19.0001C88.1277 19.0001 88.1277 19.0185 88.1277 19.037C88.1277 19.0555 88.1532 19.0555 88.1786 19.0555C88.4844 19.074 88.7902 19.0001 88.994 18.8337C89.0959 18.8337 89.1979 18.8337 89.2743 18.8337C89.2998 18.8337 89.2998 18.7967 89.3253 18.7782C89.2998 18.7597 89.2488 18.7412 89.2233 18.7412C89.1469 18.7597 89.045 18.8152 88.9685 18.8337C88.9176 18.7967 88.8666 18.7412 88.8157 18.7043C88.8157 18.6858 88.7902 18.6673 88.7902 18.6673C88.8157 18.6488 88.8411 18.6118 88.8666 18.6118C89.0195 18.6118 89.1469 18.5933 89.2998 18.5933C89.4527 18.5933 89.5801 18.6303 89.682 18.7227C89.7329 18.7597 89.7839 18.7412 89.8349 18.7043C89.8858 18.6673 89.9113 18.6118 89.9623 18.6118C90.1916 18.5748 90.3954 18.5379 90.6247 18.5564C91.1344 18.6303 91.644 18.5933 92.1536 18.5748C92.281 18.5748 92.3829 18.5379 92.4848 18.4824C92.5867 18.4269 92.7141 18.4269 92.8161 18.4824C92.9435 18.5748 93.0963 18.5933 93.2747 18.5933C93.4531 18.5933 93.6314 18.5933 93.8353 18.5933C93.8607 18.5933 93.9117 18.6118 93.9372 18.6303C93.9627 18.6488 93.8862 18.7227 93.8353 18.7227C93.7079 18.7412 93.6059 18.7412 93.4785 18.7597C93.4276 18.7597 93.4021 18.7967 93.4276 18.8337C93.4276 18.8522 93.4531 18.8522 93.4785 18.8522C93.8607 18.8152 94.2429 18.8891 94.6251 18.8152C94.6506 18.8152 94.6761 18.7967 94.6761 18.7967C94.6506 18.7782 94.6506 18.7597 94.6251 18.7227C94.5997 18.7043 94.5742 18.6858 94.5487 18.6488C94.5487 18.6488 94.5487 18.6118 94.5742 18.6118C94.5997 18.5933 94.6506 18.5933 94.6761 18.5933C94.9309 18.5933 95.1602 18.5748 95.415 18.5933C95.7463 18.5933 96.0775 18.6118 96.3833 18.5748C96.5107 18.5564 96.6381 18.5748 96.74 18.5748C96.9948 18.5933 97.2241 18.6118 97.4789 18.6118C97.5809 18.6118 97.6318 18.6488 97.6063 18.6858C97.5809 18.7043 97.5554 18.7227 97.5044 18.7227C97.1477 18.7412 96.8164 18.7597 96.4597 18.7227C96.1285 18.6858 95.7972 18.7043 95.4915 18.7043C95.466 18.7043 95.415 18.7227 95.415 18.7597C95.415 18.7782 95.4405 18.8152 95.466 18.8152C95.5934 18.8337 95.6953 18.8522 95.8227 18.8706C95.9501 18.8891 96.103 18.9261 96.2559 18.9816C96.2814 18.9816 96.3323 18.9631 96.3833 18.9446C96.5362 18.8706 96.7145 18.8337 96.8929 18.8706C97.2241 18.9261 97.5299 18.9076 97.8611 18.9076C98.014 18.9076 98.1414 18.9076 98.2943 18.8891C98.4981 18.8522 98.702 18.8706 98.9058 18.9076C99.0587 18.9446 99.2116 18.9631 99.39 18.9446C99.4919 18.9446 99.5938 18.9631 99.6957 18.9631C99.7722 18.9631 99.8486 18.9816 99.925 18.9816C100.638 18.9076 101.352 18.9076 102.065 18.9446C102.091 18.9446 102.116 18.9446 102.116 18.9446C102.142 18.9261 102.193 18.9261 102.218 18.9076C102.218 18.8891 102.193 18.8522 102.167 18.8337C102.065 18.7597 102.065 18.7227 102.167 18.6858C102.32 18.6488 102.473 18.6118 102.626 18.5933C102.804 18.5564 102.983 18.5564 103.136 18.6673C103.187 18.7043 103.237 18.7227 103.288 18.7227C103.492 18.7043 103.696 18.7782 103.874 18.7967C104.027 18.8152 104.206 18.8337 104.359 18.8152C104.588 18.7782 104.792 18.7967 105.021 18.8152C105.327 18.8522 105.633 18.8337 105.938 18.7597C106.04 18.7227 106.168 18.7227 106.295 18.7043C106.372 18.7043 106.473 18.7043 106.524 18.7043C106.728 18.7412 106.907 18.7967 107.11 18.7227C107.136 18.7227 107.161 18.7227 107.161 18.7227C107.62 18.8522 108.13 18.8337 108.588 18.9446C108.614 18.9446 108.614 19.0001 108.614 19.0185C108.614 19.0185 108.588 19.037 108.563 19.037C108.512 19.037 108.486 19.037 108.435 19.037C108.232 18.9816 108.002 18.9816 107.773 19.0001C107.747 19.0001 107.697 19.0185 107.671 19.037C107.646 19.037 107.646 19.0555 107.646 19.074C107.646 19.0925 107.646 19.111 107.671 19.111C107.697 19.1295 107.747 19.148 107.773 19.148C108.053 19.1665 108.334 19.1665 108.639 19.1665C108.996 19.1665 109.327 19.1665 109.684 19.2219C109.939 19.2589 110.219 19.2774 110.474 19.2404C110.499 19.2404 110.55 19.2034 110.55 19.1849C110.55 19.1665 110.499 19.1295 110.474 19.1295C110.372 19.111 110.27 19.111 110.168 19.0925C110.041 19.074 109.964 19.0001 109.888 18.9446C110.219 18.9816 110.576 19.0001 110.907 19.0001C111.06 19.0001 111.238 19.0185 111.391 19.0185C111.671 19.037 111.952 19.0555 112.232 19.0555C112.436 19.0555 112.64 19.0925 112.844 19.111C112.894 19.111 112.92 19.148 112.894 19.1665C112.894 19.1849 112.869 19.1849 112.844 19.1849C112.665 19.1849 112.487 19.1849 112.308 19.1849C112.054 19.1849 111.824 19.1665 111.57 19.1665C111.544 19.1665 111.519 19.2034 111.519 19.2219L111.544 19.2589C111.722 19.3144 111.901 19.3328 112.079 19.3513C112.436 19.3698 112.818 19.3698 113.175 19.3883C113.277 19.3883 113.379 19.3513 113.43 19.2959C113.481 19.2404 113.506 19.2034 113.557 19.148C113.582 19.1295 113.633 19.111 113.659 19.111C113.71 19.111 113.786 19.111 113.837 19.148C113.888 19.1849 113.863 19.2219 113.837 19.2589C113.786 19.3328 113.812 19.3698 113.888 19.3883C113.939 19.4068 114.016 19.4068 114.067 19.4068C114.143 19.4068 114.245 19.3883 114.245 19.3328C114.27 19.2219 114.372 19.1849 114.5 19.1849C114.729 19.1849 114.958 19.148 115.162 19.2404C115.188 19.2404 115.188 19.2589 115.188 19.2774C115.188 19.2959 115.188 19.3144 115.162 19.3144C115.06 19.3328 114.984 19.3513 114.882 19.3698C114.856 19.3698 114.831 19.3883 114.831 19.3883C114.856 19.4068 114.856 19.4438 114.882 19.4438C115.239 19.4807 115.595 19.5177 115.978 19.5547C116.029 19.5547 116.054 19.5547 116.105 19.5547C116.818 19.5177 117.532 19.5917 118.22 19.6102C118.271 19.6102 118.296 19.6102 118.347 19.6102C118.831 19.5917 119.265 19.6656 119.723 19.7581C119.851 19.7765 119.953 19.7765 120.08 19.7765C120.207 19.7581 120.335 19.7396 120.437 19.7581C120.921 19.832 121.405 19.8135 121.889 19.8505C122.322 19.8875 122.73 19.869 123.163 19.9614C123.265 19.9799 123.392 19.9799 123.52 19.9799C123.876 19.9799 124.208 19.9799 124.539 20.0354C124.513 20.0539 124.463 20.0723 124.437 20.0908C124.412 20.0908 124.412 20.1093 124.412 20.1278C124.412 20.1463 124.437 20.1648 124.437 20.1648C124.488 20.1833 124.513 20.1648 124.513 20.1278C124.513 20.0908 124.513 20.0723 124.513 20.0354C124.641 20.0354 124.768 20.0169 124.87 20.0169C125.15 20.0354 125.431 20.0539 125.711 20.0908C125.966 20.1278 126.246 20.1463 126.501 20.1463C126.756 20.1463 126.985 20.1833 127.163 20.3312C127.291 20.4236 127.469 20.4236 127.597 20.3312C127.724 20.2387 127.826 20.2202 127.979 20.2387C128.081 20.2572 128.183 20.2572 128.285 20.2942C128.616 20.3681 128.947 20.4236 129.304 20.4236C129.38 20.4236 129.457 20.4421 129.533 20.4606C129.584 20.4791 129.635 20.5345 129.584 20.5715C129.559 20.59 129.533 20.627 129.508 20.627C129.253 20.627 128.973 20.6085 128.718 20.6085C128.692 20.6085 128.641 20.627 128.616 20.627L128.59 20.664C128.641 20.7379 128.718 20.8119 128.845 20.8488C129.049 20.9043 129.278 20.9413 129.508 20.9413C129.508 20.9782 129.533 21.0337 129.533 21.0707C129.559 21.1816 129.635 21.2556 129.788 21.2925C129.915 21.311 130.068 21.348 130.17 21.4035C130.247 21.4404 130.374 21.4589 130.45 21.4404C130.807 21.3665 131.164 21.4035 131.521 21.4959C131.572 21.5144 131.648 21.5329 131.699 21.5144C132.132 21.4959 132.54 21.6253 132.947 21.6808C133.126 21.7177 133.304 21.7362 133.483 21.7177C133.865 21.6808 134.247 21.6993 134.629 21.7547C134.757 21.7732 134.909 21.7732 135.062 21.7732C135.164 21.7917 135.266 21.7917 135.343 21.8287C135.521 21.9026 135.674 21.9211 135.878 21.9211C136.285 21.9581 136.693 21.9951 137.101 22.032C137.228 22.0505 137.33 22.069 137.432 22.1245C137.457 22.143 137.457 22.1799 137.457 22.1984C137.457 22.1984 137.432 22.2169 137.406 22.2169C137.789 22.106 137.61 22.069 137.457 21.9951ZM102.473 19.3883L102.473 19.3698C102.473 19.3698 102.473 19.4068 102.473 19.3883C102.499 19.3883 102.499 19.3698 102.524 19.3698L102.524 19.3883C102.499 19.3883 102.499 19.3883 102.473 19.3883ZM56.2519 18.8337C56.2519 18.8522 56.2519 18.8522 56.2519 18.8706C56.2519 18.8891 56.2519 18.8891 56.2519 18.9076C56.2519 18.8706 56.2519 18.8522 56.2519 18.8337ZM67.6161 19.1849C67.6161 19.2034 67.6416 19.2034 67.6416 19.2219C67.6161 19.2034 67.6161 19.2034 67.6161 19.1849ZM134.476 22.2724C134.502 22.2909 134.527 22.3094 134.553 22.3278C134.553 22.3278 134.578 22.3463 134.604 22.3463C134.629 22.3463 134.629 22.3278 134.655 22.3278C134.629 22.3094 134.629 22.2909 134.604 22.2724C134.553 22.2724 134.502 22.2909 134.476 22.2724ZM47.028 19.7211C47.079 19.7211 47.13 19.7211 47.1809 19.7211C47.2064 19.7211 47.2319 19.7211 47.2319 19.7026C47.2319 19.7026 47.2574 19.6841 47.2574 19.6656C47.2319 19.6656 47.1809 19.6286 47.1554 19.6471C47.1045 19.6656 47.0535 19.6841 47.028 19.7211ZM64.6349 18.6488C64.7113 18.7227 64.8387 18.7412 64.9661 18.7412C65.0171 18.7412 65.0935 18.7412 65.0935 18.6858C65.119 18.6488 65.0426 18.6118 64.9661 18.6118C64.8642 18.6303 64.7368 18.6488 64.6349 18.6488ZM126.603 20.3866C126.705 20.4606 126.807 20.516 126.96 20.516C127.087 20.516 127.189 20.516 127.316 20.516C127.367 20.516 127.393 20.4976 127.342 20.4421C127.112 20.4236 126.858 20.4051 126.603 20.3866C126.552 20.3866 126.526 20.3866 126.475 20.3866C126.45 20.3866 126.424 20.3866 126.424 20.3866L126.399 20.4051C126.424 20.4051 126.475 20.4236 126.501 20.4051C126.526 20.4051 126.577 20.3866 126.603 20.3866ZM126.119 20.627C126.144 20.664 126.17 20.7009 126.221 20.7379C126.272 20.7749 126.348 20.8303 126.424 20.8303C126.73 20.8673 127.011 20.9043 127.316 20.8673C127.342 20.8673 127.367 20.8303 127.367 20.7934C127.367 20.7749 127.316 20.7379 127.291 20.7379C127.24 20.7379 127.163 20.7379 127.112 20.7379C126.781 20.7749 126.475 20.7379 126.119 20.627C125.94 20.627 125.762 20.6455 125.584 20.6455C125.533 20.6455 125.507 20.6455 125.456 20.6455C125.431 20.664 125.405 20.6824 125.405 20.7009C125.431 20.7194 125.456 20.7379 125.507 20.7379C125.711 20.7749 125.915 20.7009 126.119 20.627ZM96.9948 19.4992C97.2241 19.6286 97.4789 19.6102 97.7592 19.6102C97.7847 19.5732 97.7592 19.5547 97.7083 19.5362C97.6318 19.4992 97.5809 19.4623 97.6063 19.3883C97.6318 19.3328 97.7083 19.2959 97.7847 19.2774C97.8357 19.2589 97.9121 19.2589 97.9631 19.2589C98.0395 19.2589 98.1159 19.2589 98.2179 19.2589C98.3198 19.2589 98.3707 19.2034 98.3198 19.1849C98.2943 19.1665 98.2433 19.148 98.2179 19.148C97.9376 19.1849 97.6573 19.1849 97.377 19.1849C97.2496 19.1849 97.2241 19.2219 97.2751 19.3144C97.3261 19.4068 97.3006 19.4623 97.1732 19.4807C97.1222 19.4992 97.0458 19.4992 96.9948 19.4992C96.9693 19.4992 96.9693 19.4992 96.9438 19.4992C96.9693 19.4992 96.9948 19.4992 96.9948 19.4992ZM124.539 20.516C124.361 20.553 124.208 20.59 124.029 20.6455L124.029 20.6824C124.233 20.7564 124.437 20.7749 124.666 20.7564C124.692 20.7564 124.692 20.7379 124.717 20.7194C124.717 20.7009 124.743 20.6824 124.717 20.6824C124.641 20.6085 124.59 20.553 124.539 20.516C124.768 20.4236 125.023 20.4051 125.303 20.4236C125.431 20.4236 125.533 20.4421 125.66 20.4421C125.686 20.4421 125.711 20.4051 125.737 20.3866C125.737 20.3866 125.711 20.3681 125.711 20.3497C125.558 20.2942 125.431 20.2387 125.278 20.1833C124.998 20.2757 124.692 20.2572 124.386 20.2572C124.259 20.2572 124.157 20.2387 124.029 20.2387C124.004 20.2387 123.953 20.2572 123.927 20.2757C123.927 20.2757 123.902 20.2942 123.902 20.3127C123.902 20.3312 123.927 20.3497 123.927 20.3497C124.029 20.3681 124.131 20.3681 124.233 20.3681C124.335 20.3497 124.463 20.4051 124.539 20.516ZM128.31 20.553C128.31 20.6085 128.285 20.664 128.285 20.7194C128.259 20.7749 128.234 20.8303 128.132 20.8488C128.081 20.8673 128.004 20.8858 128.055 20.9413C128.539 21.0337 129.049 21.0707 129.559 21.0337C129.61 21.0337 129.635 20.9967 129.635 20.9782C129.635 20.9598 129.584 20.9228 129.559 20.9228C129.508 20.9043 129.431 20.9043 129.38 20.9043C129.202 20.9413 129.023 20.9043 128.845 20.8488C128.743 20.8119 128.692 20.7564 128.667 20.6824C128.641 20.5715 128.565 20.5345 128.412 20.5345C128.386 20.553 128.336 20.553 128.31 20.553ZM27.1534 19.0001C26.6948 19.148 26.6184 19.1664 26.2107 19.1849C25.803 19.1849 25.3953 19.2034 24.9876 19.2034C24.6054 19.2034 24.2232 19.2034 23.841 19.2034C23.8155 19.2034 23.7901 19.2219 23.7901 19.2219C23.7646 19.2404 23.7901 19.2774 23.841 19.2774C24.1213 19.2774 24.4016 19.2589 24.6819 19.2774C25.3698 19.2774 26.0578 19.2959 26.7458 19.2774C26.9496 19.2774 27.1534 19.2589 27.3573 19.2774C27.9179 19.3143 28.5039 19.2774 29.0645 19.2589C29.2683 19.2589 29.4722 19.2219 29.6505 19.1849C29.6505 19.1849 29.676 19.1664 29.676 19.148C29.676 19.1295 29.6505 19.1295 29.6505 19.111C29.3702 19.0925 29.0899 19.074 28.8097 19.0555C28.5294 19.0555 28.2491 19.0925 27.9688 19.0555C27.6885 19.111 27.4082 19.074 27.1534 19.0001ZM21.2165 19.1849C20.7579 19.1849 20.2738 19.1849 19.8151 19.1849C19.7642 19.1849 19.6877 19.2034 19.6368 19.2034C19.6368 19.2034 19.6113 19.2219 19.6113 19.2404C19.6113 19.2589 19.6113 19.2774 19.6368 19.2774C19.7132 19.2959 19.7897 19.3143 19.8661 19.3143C20.4267 19.3143 20.9617 19.3328 21.5223 19.3328C21.879 19.3328 22.2612 19.3143 22.618 19.3143C22.6689 19.3143 22.7199 19.2959 22.7708 19.2774C22.7708 19.2774 22.7963 19.2404 22.7708 19.2404C22.7199 19.2219 22.6689 19.1849 22.618 19.1849C22.1593 19.1849 21.6752 19.1849 21.2165 19.1849ZM23.6627 18.9261C24.0958 18.9076 24.4525 18.9631 24.8093 18.9446C25.0131 18.9446 25.2169 18.9446 25.4208 18.9446C25.9814 18.9446 26.5674 18.9261 27.128 18.9261C27.2044 18.9261 27.2554 18.8706 27.2299 18.8522C27.2044 18.8337 27.1789 18.7967 27.1534 18.7967C26.8732 18.7597 26.5929 18.7412 26.3126 18.7597C25.9814 18.7967 25.6246 18.8337 25.2934 18.7782C25.2424 18.7782 25.2169 18.7782 25.166 18.7782C24.8347 18.8337 24.478 18.8152 24.1213 18.8152C23.9939 18.8152 23.841 18.8152 23.6627 18.9261ZM131.062 21.6993C131.189 21.6993 131.342 21.7177 131.47 21.7177C131.979 21.7547 132.489 21.7917 132.973 21.9026C133.253 21.9766 133.533 21.9581 133.814 21.8841C133.839 21.8841 133.865 21.8656 133.839 21.8472C133.839 21.8287 133.839 21.7917 133.814 21.7732C133.661 21.7177 133.457 21.6993 133.279 21.6808C132.642 21.6623 131.979 21.6253 131.342 21.6068C131.266 21.6068 131.189 21.6068 131.113 21.6253C131.062 21.6438 131.036 21.6623 131.062 21.6993ZM31.1793 18.7967C31.4087 18.8152 31.536 18.8337 31.6635 18.8337C32.3769 18.8337 33.0903 18.8152 33.7783 18.8152C33.8548 18.8152 33.9312 18.8152 34.0076 18.7967C34.0331 18.7967 34.0841 18.7782 34.1096 18.7597C34.1096 18.7597 34.135 18.7227 34.1096 18.7227C34.0586 18.7043 34.0076 18.6673 33.9567 18.6673C33.3451 18.7043 32.7591 18.6303 32.1476 18.6858C31.8418 18.6673 31.5615 18.7043 31.1793 18.7967ZM35.0268 18.7227C35.2307 18.7782 35.4345 18.7782 35.6384 18.7597C36.2754 18.7412 36.9379 18.7227 37.5749 18.7043C37.6258 18.7043 37.7023 18.6858 37.7532 18.6858C37.8042 18.6858 37.8297 18.6488 37.8042 18.6303C37.8042 18.6118 37.7787 18.6118 37.7532 18.6118C37.3201 18.6118 36.9124 18.6303 36.4792 18.5748C36.3518 18.5564 36.1989 18.5564 36.0461 18.5564C35.6893 18.5564 35.511 18.5748 35.0268 18.7227ZM115.341 20.0723C115.239 20.0723 115.137 20.0723 115.035 20.0723C115.009 20.0723 114.958 20.1093 114.958 20.1278C114.958 20.1463 114.984 20.1833 115.009 20.1833C115.341 20.2572 115.672 20.2757 116.029 20.2572C116.181 20.2572 116.309 20.2387 116.462 20.2387C116.742 20.2572 117.022 20.2757 117.303 20.2942C117.455 20.2942 117.634 20.2942 117.787 20.2942C117.812 20.2942 117.838 20.2757 117.838 20.2757C117.838 20.2572 117.812 20.2202 117.787 20.2018C117.685 20.1463 117.557 20.1463 117.43 20.1463C117.124 20.1463 116.818 20.1278 116.513 20.1463C116.207 20.1648 115.927 20.0723 115.621 20.0539C115.544 20.0723 115.443 20.0723 115.341 20.0723ZM121.532 20.4236C121.456 20.4236 121.405 20.4236 121.328 20.4421C121.303 20.4421 121.277 20.4606 121.227 20.4791C121.252 20.4976 121.277 20.516 121.328 20.5345C121.405 20.553 121.481 20.5715 121.558 20.5715C122.067 20.6085 122.577 20.627 123.087 20.6455C123.112 20.6455 123.138 20.6455 123.138 20.627C123.163 20.627 123.163 20.6085 123.163 20.59C123.163 20.5715 123.163 20.553 123.138 20.553C122.908 20.5345 122.653 20.4976 122.424 20.4791C122.144 20.4606 121.838 20.4421 121.532 20.4236ZM91.4656 18.4639C91.3127 18.4639 91.1344 18.4824 90.9815 18.4824C90.956 18.4824 90.905 18.5194 90.905 18.5379C90.905 18.5564 90.9305 18.6118 90.956 18.6118C91.3127 18.6673 91.6694 18.6858 92.0262 18.6488C92.0516 18.6488 92.1026 18.6118 92.1026 18.5933C92.1026 18.5748 92.0771 18.5379 92.0516 18.5194C91.8733 18.4639 91.6694 18.4639 91.4656 18.4639ZM133.432 22.3094C133.483 22.3094 133.508 22.3094 133.533 22.3094C133.559 22.2909 133.584 22.2724 133.61 22.2539C133.584 22.2354 133.559 22.1984 133.533 22.1984C133.304 22.1799 133.049 22.143 132.82 22.1245C132.616 22.1245 132.412 22.106 132.234 22.069C132.081 22.0505 131.928 22.0505 131.75 22.032C131.75 22.032 131.724 22.0505 131.724 22.069C131.724 22.0875 131.75 22.106 131.75 22.106C131.801 22.1245 131.877 22.1245 131.928 22.143C132.31 22.1614 132.693 22.1984 133.049 22.2724C133.177 22.2909 133.33 22.2909 133.432 22.3094ZM89.9113 19.4992L89.9368 19.5177C90.4209 19.5362 90.905 19.5547 91.3892 19.5547C91.6694 19.5547 91.9497 19.5362 92.281 19.5177C91.3127 19.4068 91.2108 19.4438 89.9113 19.4992ZM29.2938 18.7967C28.8351 18.6858 28.4275 18.7412 28.0198 18.8152C27.9943 18.8152 27.9943 18.8337 27.9943 18.8522C27.9943 18.8706 27.9943 18.8891 28.0198 18.8891C28.0962 18.9076 28.1727 18.9261 28.2491 18.9261C28.6058 18.9261 28.9371 18.8706 29.2938 18.7967ZM60.66 19.3883C60.5581 19.3513 60.4561 19.3144 60.3287 19.2774C60.2268 19.2404 60.1249 19.2589 60.0484 19.2959C59.972 19.3328 59.9465 19.4068 59.9975 19.4438C60.0739 19.4992 60.1249 19.5547 60.0994 19.6286C60.0994 19.6841 60.2268 19.7211 60.2778 19.7026C60.4052 19.6286 60.5071 19.5547 60.6345 19.4807C60.6345 19.4438 60.6345 19.4253 60.66 19.3883ZM122.373 20.2572C122.348 20.2572 122.45 20.2572 122.552 20.2387C122.577 20.2387 122.628 20.2018 122.628 20.1833C122.628 20.1648 122.628 20.1278 122.602 20.1093C122.526 20.0539 122.424 19.9984 122.348 20.0354C122.093 20.0908 121.838 20.0723 121.583 20.1093C121.558 20.1093 121.558 20.1278 121.558 20.1463C121.558 20.1648 121.583 20.1833 121.583 20.1833C121.762 20.2572 121.991 20.2572 122.373 20.2572ZM123.01 21.1631C123.138 21.1446 123.265 21.1446 123.367 21.1261C123.392 21.1261 123.392 21.1077 123.392 21.0892C123.392 21.0707 123.367 21.0152 123.341 21.0152C123.087 20.9967 122.832 20.9598 122.577 20.9413C122.475 20.9413 122.373 20.9598 122.271 20.9598C122.22 20.9598 122.195 20.9782 122.195 21.0152C122.195 21.0337 122.246 21.0707 122.271 21.0707C122.552 21.1261 122.781 21.1446 123.01 21.1631ZM72.4828 19.3144C72.5847 19.3144 72.6867 19.2959 72.7886 19.2774C72.814 19.2774 72.865 19.2404 72.865 19.2219C72.8905 19.1849 72.865 19.1295 72.8395 19.0925C72.6867 18.9446 72.3044 19.0185 72.2535 19.2034C72.2535 19.2219 72.279 19.2589 72.3045 19.2774C72.3809 19.2959 72.4319 19.2959 72.4828 19.3144ZM117.71 19.8875C117.838 19.906 117.94 19.8505 117.94 19.795C117.94 19.7396 117.94 19.6841 117.914 19.6286C117.838 19.5362 117.659 19.5177 117.557 19.5732C117.481 19.6102 117.481 19.7396 117.583 19.8135C117.608 19.8505 117.685 19.869 117.71 19.8875ZM63.3864 19.7211C63.4628 19.7211 63.6157 19.7026 63.7431 19.6841C63.7686 19.6841 63.8195 19.6656 63.845 19.6471C63.845 19.6471 63.845 19.6286 63.845 19.6102C63.845 19.5917 63.8195 19.5917 63.794 19.5732C63.6157 19.5362 63.4373 19.5177 63.259 19.5732C63.208 19.5917 63.157 19.6286 63.1316 19.6471C63.1061 19.6656 63.1825 19.7211 63.259 19.7211C63.2844 19.7211 63.3099 19.7211 63.3864 19.7211ZM19.3565 18.8152C19.2546 18.8337 19.1526 18.8337 19.0507 18.8337C18.9998 18.8337 18.9743 18.8522 18.9743 18.8891C18.9743 18.9076 18.9998 18.9076 19.0252 18.9076C19.2036 18.9261 19.382 18.9446 19.5603 18.9631C19.6113 18.9631 19.6877 18.9631 19.7387 18.9446C19.7642 18.9446 19.7897 18.9076 19.8406 18.8891C19.8151 18.8706 19.7897 18.8337 19.7642 18.8337C19.6368 18.8337 19.5094 18.8337 19.3565 18.8152ZM66.7752 19.0001C66.8517 19.0001 66.9026 19.0001 66.9281 18.9816C66.9536 18.9631 66.9791 18.9446 66.9791 18.9076L66.9536 18.8706C66.8262 18.8152 66.6224 18.8337 66.5204 18.9076L66.5204 18.9446C66.5969 18.9816 66.6988 18.9816 66.7752 19.0001ZM95.8482 19.5917C95.9246 19.5732 95.9501 19.5732 96.0011 19.5732C96.0266 19.5547 96.052 19.5362 96.052 19.4992C96.052 19.4992 96.0266 19.4807 96.0266 19.4623C95.8992 19.4253 95.7718 19.4253 95.6189 19.4438C95.5679 19.4438 95.5424 19.4807 95.5679 19.4992C95.5679 19.5177 95.5934 19.5177 95.5934 19.5362C95.6953 19.5732 95.7718 19.5732 95.8482 19.5917ZM79.6173 19.1664C79.5918 19.148 79.5918 19.1295 79.5918 19.1295C79.388 19.0925 79.1586 19.0925 78.9293 19.111C78.8784 19.111 78.8529 19.1295 78.8783 19.1664C78.8783 19.1849 78.9038 19.1849 78.9293 19.1849C79.1586 19.2404 79.388 19.2219 79.6173 19.1664ZM57.0418 19.7026C56.9653 19.7026 56.8889 19.7211 56.8379 19.7211C56.8125 19.7211 56.787 19.7396 56.787 19.7396C56.7615 19.7581 56.7615 19.795 56.8125 19.8135C56.8634 19.832 56.9144 19.869 56.9653 19.8875C57.0673 19.9244 57.1947 19.906 57.2711 19.8135C57.2966 19.795 57.2711 19.7396 57.2456 19.7396C57.1692 19.7211 57.0927 19.7211 57.0418 19.7026ZM71.7184 19.6656C71.8458 19.6656 71.9222 19.6102 71.9477 19.5362C71.9477 19.5177 71.9222 19.4807 71.8968 19.4623C71.7948 19.4253 71.6929 19.4438 71.6165 19.4807C71.5655 19.4992 71.5655 19.5732 71.591 19.5917C71.642 19.6286 71.6929 19.6471 71.7184 19.6656ZM88.6118 19.148C88.5863 19.1295 88.5608 19.074 88.5608 19.074C88.4334 19.074 88.3315 19.0925 88.2041 19.0925C88.1786 19.0925 88.1786 19.111 88.1786 19.1295C88.1786 19.148 88.1786 19.1664 88.1786 19.1664C88.306 19.2589 88.408 19.2589 88.5608 19.2034C88.5608 19.2034 88.5863 19.1665 88.6118 19.148ZM103.925 18.8522C104.027 18.8337 104.104 18.8337 104.18 18.8152C104.231 18.8152 104.257 18.7782 104.231 18.7412C104.231 18.7227 104.206 18.7227 104.18 18.7043C104.027 18.6673 103.874 18.6673 103.722 18.7412L103.722 18.7782C103.798 18.8152 103.874 18.8337 103.925 18.8522ZM81.1716 19.4992C81.4264 19.5177 81.5538 19.5362 81.6812 19.5547C81.7067 19.5547 81.7321 19.5362 81.7321 19.5362C81.7321 19.4992 81.7067 19.4807 81.6812 19.4807C81.5283 19.4623 81.3754 19.4438 81.1716 19.4992ZM103.034 19.7396C103.136 19.7396 103.187 19.7396 103.212 19.7396C103.237 19.7396 103.288 19.7026 103.314 19.6841C103.339 19.6656 103.263 19.6102 103.187 19.6102C103.059 19.6102 102.957 19.6286 102.83 19.6286C102.804 19.6286 102.779 19.6471 102.779 19.6471C102.804 19.6656 102.804 19.7026 102.855 19.7026C102.932 19.7396 103.008 19.7396 103.034 19.7396ZM83.4393 18.7782C83.4393 18.7967 83.4393 18.7967 83.4138 18.8152C83.4903 18.8152 83.5667 18.8337 83.6432 18.8152C83.7196 18.8152 83.796 18.8337 83.847 18.7782C83.7196 18.7782 83.5667 18.7782 83.4393 18.7782ZM43.5882 19.8505C43.5882 19.832 43.5882 19.8135 43.5627 19.8135C43.4863 19.7581 43.3844 19.7581 43.3079 19.8135C43.2824 19.832 43.2824 19.869 43.2824 19.8875C43.3589 19.9799 43.5118 19.9799 43.5627 19.8875C43.5882 19.8875 43.5882 19.869 43.5882 19.8505ZM96.2559 19.148C96.2559 19.0925 96.2304 19.037 96.1794 19.0555C96.154 19.0555 96.103 19.074 96.0775 19.0925C96.052 19.111 96.0266 19.148 96.0266 19.1665C96.0011 19.2034 96.052 19.2589 96.103 19.2589C96.2049 19.2404 96.2559 19.2219 96.2559 19.148ZM84.3566 19.1295C84.3311 19.111 84.3056 19.074 84.2802 19.074C84.2037 19.074 84.1273 19.0925 84.0508 19.0925C84.0254 19.0925 83.9999 19.111 83.9999 19.111C83.9999 19.1295 84.0254 19.1664 84.0254 19.1849C84.1018 19.2404 84.2037 19.2404 84.2802 19.1849C84.3311 19.1849 84.3311 19.148 84.3566 19.1295ZM23.0002 18.8706C22.8218 18.8522 22.8218 18.8522 22.6689 18.8891C22.7708 18.8891 22.8728 18.9261 23.0002 18.8706ZM69.8329 19.5732C69.8329 19.5547 69.8329 19.5362 69.8074 19.5177C69.7564 19.4807 69.7055 19.4623 69.6545 19.4992C69.629 19.5177 69.6035 19.5362 69.6035 19.5732C69.6035 19.5917 69.6545 19.6286 69.68 19.6286C69.7309 19.6102 69.7819 19.5917 69.8329 19.5732ZM117.685 20.8673C117.71 20.8673 117.736 20.8488 117.736 20.8488C117.736 20.8303 117.736 20.8119 117.736 20.8119C117.659 20.7934 117.608 20.7564 117.532 20.7379C117.506 20.7379 117.481 20.7379 117.481 20.7379C117.481 20.7564 117.481 20.7934 117.481 20.8119C117.532 20.8673 117.608 20.8858 117.685 20.8673ZM85.0701 19.4992C85.172 19.4992 85.2229 19.4807 85.2229 19.4438C85.2229 19.4068 85.1975 19.3883 85.1465 19.3883C85.0955 19.3883 85.0446 19.4068 85.0191 19.4438C85.0191 19.4807 85.0446 19.4992 85.0701 19.4992ZM76.4068 19.148C76.3813 19.1295 76.3303 19.0925 76.3048 19.074C76.2539 19.0555 76.2029 19.0925 76.152 19.1295C76.1265 19.1664 76.152 19.2219 76.2029 19.2404C76.3048 19.2589 76.3813 19.2219 76.4068 19.148ZM50.2385 19.8135C50.264 19.8135 50.2895 19.8135 50.2895 19.8135C50.366 19.795 50.4169 19.7396 50.4424 19.6841C50.4424 19.6656 50.4169 19.6286 50.3914 19.6102L50.3405 19.6102C50.2385 19.6471 50.1876 19.6841 50.2131 19.7765C50.2131 19.7765 50.2385 19.795 50.2385 19.8135ZM75.0818 20.4236C75.0818 20.3866 75.0563 20.3681 75.0054 20.3681C74.9544 20.3681 74.9289 20.3866 74.9289 20.4236C74.9289 20.4606 74.9544 20.4791 75.0054 20.4791C75.0563 20.4791 75.0818 20.4606 75.0818 20.4236ZM130.756 22.032C130.782 22.032 130.833 22.032 130.858 22.032C130.884 22.032 130.909 21.9951 130.909 21.9766L130.884 21.9581C130.807 21.9581 130.731 21.9396 130.654 21.9581C130.629 21.9581 130.603 21.9951 130.578 22.0135C130.603 22.0135 130.603 22.032 130.629 22.032C130.68 22.032 130.705 22.032 130.756 22.032ZM106.219 18.7782C106.168 18.7782 106.091 18.8337 106.117 18.8522C106.142 18.8706 106.168 18.8891 106.219 18.8891C106.244 18.8891 106.27 18.8891 106.27 18.8891C106.295 18.8706 106.346 18.8522 106.346 18.8337C106.346 18.8152 106.321 18.7967 106.27 18.7782C106.27 18.7782 106.244 18.7782 106.219 18.7782ZM87.1594 19.1849C87.2104 19.1849 87.2359 19.1849 87.2359 19.1849C87.2868 19.1849 87.3123 19.1664 87.2868 19.148C87.2868 19.148 87.2614 19.1295 87.2359 19.1295C87.2104 19.1295 87.1849 19.1295 87.1849 19.1295C87.134 19.1295 87.083 19.148 87.032 19.1664C87.083 19.148 87.134 19.1664 87.1594 19.1849ZM80.5601 18.8337C80.5601 18.8152 80.5601 18.7967 80.5601 18.7782C80.5091 18.7782 80.4581 18.7597 80.4072 18.7597C80.3817 18.7597 80.3562 18.7782 80.3562 18.7782C80.3817 18.7967 80.3817 18.8337 80.4072 18.8337C80.4581 18.8522 80.5091 18.8337 80.5601 18.8337ZM109.531 19.9244C109.557 19.9244 109.608 19.9429 109.658 19.9429C109.709 19.9429 109.76 19.8875 109.76 19.8505C109.735 19.8135 109.658 19.795 109.608 19.8135C109.531 19.832 109.48 19.869 109.531 19.9244ZM118.271 20.0539C118.322 20.0539 118.398 20.0539 118.424 20.0354C118.449 20.0354 118.449 19.9984 118.475 19.9614C118.449 19.9429 118.398 19.9244 118.373 19.9244C118.347 19.9244 118.296 19.9429 118.271 19.9614C118.245 19.9799 118.271 20.0169 118.271 20.0539ZM120.258 20.4051C120.258 20.3866 120.258 20.3681 120.233 20.3681C120.156 20.3312 120.08 20.3312 120.003 20.3681C120.003 20.3681 119.978 20.4051 120.003 20.4051C120.029 20.4421 120.105 20.4606 120.156 20.4421C120.207 20.4421 120.233 20.4051 120.258 20.4051ZM51.2832 19.6841C51.2832 19.6656 51.2578 19.6471 51.2578 19.6471C51.2068 19.6471 51.1558 19.6471 51.0794 19.6471C51.0539 19.6471 51.0284 19.6656 51.0284 19.6656C51.0539 19.6841 51.0539 19.7211 51.0794 19.7211C51.2068 19.7396 51.3087 19.7211 51.2832 19.6841ZM45.1935 19.2404C45.2189 19.2219 45.2699 19.2034 45.2699 19.1849C45.2954 19.148 45.2189 19.111 45.168 19.111C45.1425 19.111 45.0915 19.148 45.0915 19.1664C45.0661 19.2219 45.117 19.2589 45.1935 19.2404ZM56.3029 19.5177C56.3283 19.5177 56.3283 19.5362 56.3538 19.5362C56.4048 19.5362 56.4303 19.5362 56.4812 19.5177C56.5067 19.5177 56.5067 19.4992 56.5067 19.4807C56.5067 19.4438 56.4303 19.4253 56.3538 19.4438C56.3028 19.4623 56.2774 19.4807 56.3029 19.5177ZM112.41 20.0539C112.461 20.0539 112.487 20.0539 112.487 20.0169C112.487 19.9984 112.461 19.9984 112.436 19.9984C112.41 19.9984 112.359 19.9984 112.334 20.0169C112.308 20.0354 112.359 20.0539 112.41 20.0539ZM47.6141 19.9799C47.665 19.9799 47.6905 19.9614 47.6905 19.9244C47.665 19.906 47.6396 19.8875 47.5886 19.8875C47.5631 19.8875 47.5122 19.906 47.4867 19.9244C47.4867 19.9244 47.4867 19.9614 47.5122 19.9614C47.5377 19.9799 47.5631 19.9799 47.6141 19.9799ZM104.537 19.7765C104.537 19.7581 104.562 19.7396 104.562 19.7026C104.562 19.7026 104.537 19.6841 104.511 19.6841C104.486 19.7026 104.461 19.7211 104.461 19.7396C104.461 19.7765 104.486 19.795 104.537 19.7765ZM83.3629 19.5177C83.3884 19.5177 83.4138 19.4992 83.4648 19.4992C83.4393 19.4807 83.4393 19.4623 83.4393 19.4623C83.4138 19.4623 83.3629 19.4807 83.3374 19.4807C83.3374 19.4992 83.3374 19.4992 83.3629 19.5177ZM73.3237 19.5362C73.3491 19.5362 73.3746 19.5177 73.3746 19.5177C73.4001 19.4807 73.3491 19.4623 73.2982 19.4807C73.2727 19.4807 73.2472 19.4992 73.2217 19.5177C73.2472 19.5177 73.2472 19.5362 73.2727 19.5362C73.2727 19.5362 73.2982 19.5362 73.3237 19.5362ZM129.38 21.9211C129.406 21.9211 129.431 21.9211 129.431 21.9211C129.457 21.9211 129.457 21.9026 129.457 21.9026C129.431 21.9026 129.406 21.8841 129.355 21.8841L129.329 21.9026C129.355 21.9026 129.38 21.9026 129.38 21.9211ZM106.83 19.111C106.83 19.1295 106.83 19.148 106.856 19.148C106.907 19.1665 106.932 19.148 106.932 19.1295C106.932 19.111 106.932 19.0925 106.907 19.0925C106.881 19.0555 106.856 19.074 106.83 19.111ZM113.812 20.0539C113.812 20.0354 113.812 20.0169 113.812 20.0169C113.786 20.0169 113.735 20.0169 113.71 20.0169C113.71 20.0354 113.71 20.0539 113.735 20.0539C113.761 20.0908 113.786 20.0908 113.812 20.0539ZM109.557 19.6102C109.582 19.6102 109.633 19.5917 109.658 19.5917C109.658 19.5732 109.633 19.5362 109.633 19.5362C109.608 19.5362 109.557 19.5362 109.557 19.5547C109.48 19.5732 109.506 19.5917 109.557 19.6102ZM108.767 19.869C108.792 19.869 108.818 19.8505 108.869 19.8505C108.869 19.832 108.869 19.8135 108.843 19.8135C108.818 19.8135 108.792 19.8135 108.741 19.832C108.767 19.8505 108.767 19.869 108.767 19.869ZM56.8889 21.2186L56.8634 21.2001L56.8379 21.2371L56.8889 21.2186ZM108.053 19.869C108.079 19.869 108.079 19.8505 108.104 19.8505C108.104 19.832 108.079 19.832 108.079 19.832C108.028 19.8135 108.002 19.832 108.028 19.869C108.002 19.869 108.028 19.869 108.053 19.869ZM106.881 18.9076C106.932 18.9076 106.958 18.8891 106.958 18.8706C106.958 18.8522 106.932 18.8337 106.932 18.8337C106.907 18.8337 106.881 18.8522 106.83 18.8522C106.856 18.8706 106.881 18.8891 106.881 18.9076ZM60.2268 19.074C60.2523 19.074 60.2523 19.0555 60.2778 19.0555C60.2778 19.037 60.2523 19.037 60.2523 19.0185C60.2013 19.0001 60.1758 19.0185 60.2013 19.0555C60.1758 19.074 60.2013 19.074 60.2268 19.074ZM61.1186 19.4438C61.0931 19.4807 61.1186 19.4992 61.1696 19.4807L61.1696 19.4438C61.1441 19.4438 61.1186 19.4438 61.1186 19.4438ZM53.8313 19.6471L53.8313 19.6841L53.8822 19.6656L53.8313 19.6471ZM90.5228 19.148L90.5483 19.1665C90.5993 19.1665 90.6247 19.148 90.5993 19.1295C90.5993 19.1295 90.5738 19.1295 90.5483 19.1295C90.5483 19.1295 90.5228 19.1295 90.5228 19.148ZM99.0078 19.5917C99.0332 19.5917 99.0332 19.5917 99.0587 19.5732L99.0332 19.5547C99.0332 19.5547 99.0078 19.5547 98.9823 19.5732C98.9823 19.5917 98.9823 19.5917 99.0078 19.5917ZM74.1135 19.5177C74.1645 19.5177 74.2155 19.5362 74.2155 19.4623C74.2155 19.4623 74.1645 19.4623 74.1135 19.4623L74.0881 19.4807C74.0881 19.5177 74.1135 19.5177 74.1135 19.5177ZM125.456 21.2186L125.482 21.2371L125.507 21.2186L125.482 21.2001C125.482 21.2001 125.456 21.2001 125.456 21.2186ZM128.106 20.4051C128.132 20.4051 128.132 20.3866 128.157 20.3866L128.132 20.3681C128.132 20.3681 128.106 20.3681 128.081 20.3866C128.081 20.3866 128.081 20.3866 128.106 20.4051ZM122.934 21.4774C122.959 21.4774 122.959 21.4589 122.985 21.4589C122.985 21.4404 122.959 21.4404 122.959 21.4219C122.908 21.4035 122.883 21.4219 122.908 21.4589C122.883 21.4774 122.908 21.4774 122.934 21.4774ZM38.9508 19.3513L39.0018 19.3513C39.0272 19.3143 39.0018 19.3143 38.9508 19.3143C38.9253 19.3143 38.9253 19.3328 38.8998 19.3328C38.8998 19.3328 38.9253 19.3328 38.9508 19.3513ZM30.4659 18.7967C30.4659 18.7782 30.4404 18.7597 30.4404 18.7597C30.4149 18.7597 30.364 18.7597 30.3385 18.7782C30.3385 18.7967 30.364 18.8152 30.364 18.8152C30.3894 18.8152 30.4149 18.7967 30.4659 18.7967ZM62.622 19.0001C62.6474 19.0001 62.6474 19.0185 62.6729 19.0001L62.6984 18.9816C62.6984 18.9446 62.6474 18.9446 62.622 18.9631C62.5965 18.9631 62.622 18.9816 62.622 19.0001ZM126.628 20.1093C126.603 20.0908 126.603 20.0908 126.577 20.0908C126.552 20.0908 126.552 20.1093 126.526 20.1093C126.552 20.1278 126.552 20.1278 126.577 20.1278C126.577 20.1278 126.603 20.1278 126.628 20.1093ZM65.6796 18.5933C65.6541 18.5933 65.6541 18.5748 65.6286 18.5933C65.5777 18.6118 65.5777 18.6303 65.6286 18.6303C65.6286 18.6303 65.6541 18.6303 65.6796 18.6303C65.6796 18.6118 65.6796 18.6118 65.6796 18.5933ZM99.7467 18.9446C99.7212 18.9446 99.7212 18.9261 99.6957 18.9261C99.6448 18.9446 99.6448 18.9631 99.6957 18.9816L99.7467 18.9816C99.7467 18.9816 99.7467 18.9631 99.7467 18.9446ZM128.336 21.8102L128.31 21.7917L128.31 21.8102L128.336 21.8102ZM73.1453 18.8891L73.1453 18.8522L73.0943 18.8706L73.1453 18.8891ZM128.641 21.5514L128.692 21.5329L128.667 21.5144L128.641 21.5514ZM68.5843 20.553L68.6098 20.5715L68.6098 20.553L68.5843 20.553ZM101.479 19.6286C101.505 19.6286 101.505 19.6286 101.53 19.6102C101.53 19.5917 101.53 19.5732 101.505 19.5732C101.505 19.5732 101.479 19.5732 101.454 19.5917C101.454 19.6102 101.454 19.6102 101.479 19.6286ZM92.5103 19.148L92.4848 19.1295L92.4593 19.148L92.4848 19.1665C92.4848 19.1665 92.4848 19.148 92.5103 19.148ZM100.205 19.148L100.18 19.1295C100.18 19.1295 100.154 19.1295 100.129 19.148L100.154 19.1665C100.18 19.148 100.205 19.148 100.205 19.148ZM78.2923 19.5177L78.2923 19.4807L78.2413 19.4992L78.2923 19.5177ZM110.397 20.4791C110.448 20.4976 110.474 20.4791 110.448 20.4421C110.448 20.4421 110.423 20.4421 110.397 20.4421C110.397 20.4606 110.397 20.4791 110.397 20.4791ZM114.704 19.7765L114.755 19.7581L114.729 19.7396L114.704 19.7765ZM59.2076 19.074C59.2331 19.074 59.2331 19.0555 59.2586 19.0555L59.2331 19.037C59.2331 19.037 59.2076 19.0555 59.1821 19.0555C59.1821 19.0555 59.1821 19.074 59.2076 19.074ZM59.386 19.6841C59.386 19.6656 59.3605 19.6471 59.3605 19.6471C59.335 19.6471 59.3095 19.6656 59.2586 19.6656C59.2586 19.6841 59.284 19.7026 59.284 19.7026C59.3095 19.7026 59.335 19.6841 59.386 19.6841ZM135.241 22.3463L135.266 22.3648L135.292 22.3463L135.266 22.3278C135.266 22.3278 135.266 22.3278 135.241 22.3463ZM122.883 19.869C122.934 19.8875 122.959 19.869 122.934 19.832C122.934 19.832 122.908 19.832 122.883 19.832C122.857 19.832 122.883 19.8505 122.883 19.869ZM61.0167 19.074C61.0422 19.074 61.0677 19.074 61.0677 19.0555C61.0677 19.0185 61.0677 19.0185 61.0167 19.0185L60.9912 19.037C60.9912 19.0555 61.0167 19.074 61.0167 19.074ZM82.3437 20.3866L82.3182 20.3681C82.3182 20.3681 82.2927 20.3866 82.2672 20.3866L82.2927 20.4051C82.3182 20.4051 82.3437 20.4051 82.3437 20.3866ZM56.099 19.111C56.099 19.1295 56.099 19.1295 56.099 19.148C56.1245 19.148 56.1245 19.148 56.15 19.148C56.15 19.1295 56.15 19.111 56.15 19.111C56.15 19.111 56.1245 19.111 56.099 19.111ZM91.0324 19.0925C91.0579 19.0925 91.0834 19.0925 91.0834 19.074C91.0834 19.074 91.0834 19.0555 91.0579 19.037C91.0324 19.037 91.007 19.037 91.007 19.0555C91.0324 19.074 91.0324 19.0925 91.0324 19.0925ZM87.032 18.7967L87.032 18.7597L86.9811 18.7782L87.032 18.7967ZM36.734 19.4253L36.734 19.3883L36.6831 19.4068L36.734 19.4253ZM47.4867 19.3328L47.4867 19.3143L47.4357 19.3143L47.4867 19.3328ZM120.36 19.7765C120.386 19.7765 120.386 19.7765 120.411 19.7581L120.386 19.7396C120.386 19.7396 120.36 19.7396 120.36 19.7581C120.335 19.7581 120.36 19.7765 120.36 19.7765ZM119.902 20.0169L119.902 20.0354L119.927 20.0169L119.902 20.0169Z" fill="white"/>
<path d="M57.8317 18.0757C58.1629 18.0387 58.4432 18.0387 58.7235 17.9832C58.7999 17.9648 58.8764 17.9648 58.9528 17.9648C59.3605 17.9832 59.7682 17.9463 60.1758 17.9093C60.2268 17.9093 60.2523 17.9093 60.3033 17.9093C60.3287 17.9093 60.3797 17.9278 60.4052 17.9463C60.4561 18.0017 60.4052 18.0202 60.3542 18.0387C60.3287 18.0572 60.2778 18.0757 60.2778 18.0942C60.2778 18.1496 60.3542 18.1496 60.4052 18.1681C60.5326 18.1866 60.6855 18.2051 60.8383 18.1866C61.1696 18.1496 61.4753 18.1681 61.8066 18.1681C61.8575 18.1681 61.883 18.1681 61.934 18.1866C61.9595 18.2051 61.9849 18.2236 62.0104 18.2606L61.9849 18.2975C61.7301 18.3715 61.4499 18.4269 61.1696 18.3715C60.9403 18.3345 60.7364 18.3345 60.5071 18.3345C60.0739 18.3345 59.6153 18.316 59.1821 18.316C59.1821 18.316 59.1566 18.279 59.1821 18.279C59.3095 18.2236 59.4624 18.279 59.5898 18.2421C59.6408 18.2236 59.6662 18.2051 59.6408 18.1866C59.6408 18.1681 59.6153 18.1681 59.5898 18.1681C59.284 18.1496 58.9783 18.1496 58.6725 18.1496C58.3668 18.0942 58.112 18.0942 57.8317 18.0757Z" fill="white"/>
<path d="M51.8693 18.4824C51.3597 18.4824 50.8501 18.4824 50.3405 18.4824C50.1366 18.4824 49.9328 18.5009 49.7544 18.5748C49.6525 18.6118 49.5506 18.6118 49.4487 18.5933C49.2958 18.5748 49.1939 18.5194 49.2193 18.4824C49.2703 18.4269 49.3467 18.4085 49.4232 18.4085C49.6525 18.4085 49.8818 18.39 50.0857 18.4085C50.366 18.4269 50.6462 18.4269 50.952 18.4085C51.0794 18.4085 51.2068 18.39 51.3087 18.4085C51.64 18.4269 51.9457 18.4085 52.277 18.3715C52.7101 18.3345 53.1178 18.353 53.551 18.353C53.6019 18.353 53.6274 18.3715 53.6784 18.3715C53.7039 18.3715 53.7039 18.39 53.7293 18.4085C53.7548 18.4454 53.7293 18.4824 53.7039 18.4824C53.5765 18.5009 53.4236 18.5194 53.2707 18.5194C52.914 18.4824 52.5318 18.5009 52.175 18.5194C52.0731 18.4824 51.9712 18.4824 51.8693 18.4824Z" fill="white"/>
<path d="M53.2962 18.0942C53.2707 18.0942 53.2707 18.1127 53.2452 18.1127C53.0159 18.1311 52.7611 18.1496 52.5318 18.1866C52.4808 18.1866 52.4553 18.2051 52.4044 18.2051C51.8693 18.2051 51.3597 18.2421 50.8246 18.2421C50.7227 18.2421 50.6208 18.2236 50.5443 18.1681C50.5443 18.1681 50.5188 18.1496 50.5443 18.1311C50.5443 18.1127 50.5698 18.1127 50.5698 18.0942C50.5953 18.0757 50.5953 18.0757 50.6208 18.0757C51.4871 18.0387 52.3534 18.0017 53.2452 18.0387C53.2707 18.0387 53.2707 18.0572 53.2962 18.0572C53.2707 18.0757 53.2707 18.0757 53.2962 18.0942Z" fill="white"/>
<path d="M101.454 18.6303C101.403 18.6303 101.275 18.6303 101.174 18.6118C101.148 18.6118 101.123 18.5748 101.123 18.5379C101.123 18.5194 101.174 18.4824 101.199 18.4824C101.403 18.4824 101.607 18.4824 101.785 18.5009C101.811 18.5009 101.836 18.5379 101.836 18.5564C101.836 18.5748 101.785 18.6118 101.76 18.6118C101.658 18.6303 101.581 18.6303 101.454 18.6303Z" fill="white"/>
<path d="M56.4557 18.1127C56.3793 18.1127 56.3028 18.1127 56.2264 18.1127C56.2009 18.1127 56.1755 18.0942 56.15 18.0757C56.15 18.0572 56.1755 18.0572 56.1755 18.0387C56.4048 17.9648 56.6596 17.9463 56.9399 17.9648C56.9653 17.9648 56.9908 17.9832 56.9908 17.9832C56.9908 18.0017 56.9653 18.0387 56.9399 18.0387C56.787 18.0757 56.6341 18.0942 56.4557 18.1127Z" fill="white"/>
<path d="M12.8335 18.7043C12.6807 18.7597 12.5533 18.7412 12.4259 18.7412C12.1711 18.7227 11.8908 18.7412 11.636 18.6858C11.6105 18.6858 11.6105 18.6673 11.6105 18.6488C11.6105 18.6303 11.636 18.6118 11.636 18.6118C11.8908 18.6303 12.1456 18.6488 12.4259 18.6303C12.5788 18.6303 12.6807 18.6488 12.8335 18.7043Z" fill="white"/>
<path d="M54.7231 18.0387C54.6976 18.0572 54.6976 18.0757 54.6721 18.0942C54.5447 18.1866 54.3918 18.2051 54.2135 18.1681C54.1625 18.1496 54.0861 18.0942 54.1115 18.0757C54.137 18.0572 54.1625 18.0202 54.188 18.0202C54.3154 17.9832 54.4683 17.9463 54.5957 17.9648C54.6466 17.9648 54.6976 18.0202 54.7231 18.0387Z" fill="white"/>
<path d="M99.1861 18.5564C98.9058 18.5379 98.7784 18.6118 98.6255 18.5379C98.6001 18.5379 98.6001 18.5194 98.6001 18.5009C98.6001 18.4824 98.6001 18.4824 98.6255 18.4639C98.6255 18.4454 98.651 18.4454 98.6765 18.4454C98.9568 18.4454 99.2371 18.4454 99.5174 18.4639C99.5428 18.4639 99.5683 18.5009 99.5938 18.5194C99.5683 18.5194 99.5683 18.5379 99.5428 18.5379C99.3645 18.5564 99.2116 18.5564 99.1861 18.5564Z" fill="white"/>
<path d="M118.551 19.0925C118.78 19.0925 118.984 19.0925 119.214 19.0925C119.341 19.0925 119.443 19.1295 119.519 19.2034C119.545 19.2219 119.519 19.2589 119.494 19.2774C119.468 19.2959 119.417 19.3144 119.392 19.3144C119.163 19.2219 118.908 19.2219 118.653 19.148C118.628 19.1295 118.602 19.111 118.551 19.0925Z" fill="white"/>
<path d="M66.444 17.9463C66.393 17.9278 66.2911 17.9093 66.1892 17.8908C66.1637 17.8908 66.1637 17.8723 66.1637 17.8538C66.1892 17.8353 66.1892 17.7984 66.2147 17.7799C66.3421 17.7429 66.444 17.7429 66.5459 17.7984C66.5714 17.8169 66.5969 17.8353 66.5969 17.8723C66.5969 17.8908 66.5459 17.9093 66.5204 17.9093C66.5459 17.9463 66.5204 17.9463 66.444 17.9463Z" fill="white"/>
<path d="M141.764 22.79C142.018 22.7715 142.222 22.8085 142.426 22.864C142.171 22.901 142.171 22.901 141.764 22.79Z" fill="white"/>
<path d="M71.2598 18.0572C71.4891 18.0572 71.6929 18.0387 71.8968 18.0387C71.9477 18.0387 71.9732 18.0572 71.9732 18.0942C71.9732 18.1127 71.9477 18.1127 71.9222 18.1127C71.6929 18.1311 71.4891 18.1127 71.2598 18.0572Z" fill="white"/>
<path d="M104.817 18.2606C105.123 18.2051 105.327 18.1866 105.531 18.2421C105.276 18.316 105.276 18.316 104.817 18.2606Z" fill="white"/>
<path d="M107.009 18.3345C106.703 18.39 106.703 18.39 106.448 18.353C106.448 18.353 106.423 18.3345 106.448 18.316C106.448 18.2975 106.473 18.2975 106.499 18.2975C106.652 18.2606 106.83 18.2975 107.009 18.3345Z" fill="white"/>
<path d="M57.5259 18.3715C57.4749 18.3715 57.3985 18.353 57.3475 18.353C57.3221 18.353 57.2966 18.3345 57.2966 18.3345C57.2966 18.316 57.3221 18.279 57.3475 18.2606C57.4495 18.2051 57.5769 18.2236 57.7043 18.2421C57.7298 18.2421 57.7807 18.279 57.7807 18.2975C57.7807 18.316 57.7552 18.353 57.7043 18.353C57.6278 18.3715 57.5769 18.3715 57.5259 18.3715Z" fill="white"/>
<path d="M71.1833 17.7059C71.3872 17.7244 71.591 17.6874 71.7694 17.7799C71.4636 17.8538 71.4636 17.8538 71.1833 17.7059Z" fill="white"/>
<path d="M69.629 18.0942C69.8074 18.0572 69.8329 18.0387 69.8838 18.0387C69.9348 18.0387 70.0112 18.0387 70.0622 18.0387C70.1641 18.0387 70.266 18.0572 70.3934 18.0942C70.1896 18.0942 69.9857 18.0942 69.629 18.0942Z" fill="white"/>
<path d="M55.8952 18.3715C56.1245 18.2606 56.2519 18.2421 56.4048 18.2975L56.4048 18.3345C56.2519 18.39 56.0735 18.3345 55.8952 18.3715Z" fill="white"/>
<path d="M118.22 19.2219C117.94 19.2589 117.71 19.1665 117.43 19.1665C117.404 19.1665 117.379 19.1665 117.379 19.1665L117.379 19.148C117.659 19.111 117.94 19.1849 118.22 19.2219Z" fill="white"/>
<path d="M92.9435 18.1311C92.867 18.1311 92.7906 18.0942 92.8161 18.0757C92.8415 18.0572 92.867 18.0202 92.8925 18.0202C92.9435 18.0017 93.0199 18.0017 93.0709 18.0017C93.0963 18.0017 93.1218 18.0017 93.1218 18.0202C93.1473 18.0202 93.1473 18.0387 93.1728 18.0572C93.1983 18.0942 93.1728 18.1127 93.1218 18.1311C93.0963 18.1311 93.0963 18.1496 93.0709 18.1496C93.0199 18.1311 92.9944 18.1311 92.9435 18.1311Z" fill="white"/>
<path d="M63.6921 18.1681C63.5647 18.2236 63.4373 18.2421 63.3099 18.2421C63.3099 18.2421 63.2844 18.2236 63.2844 18.2051C63.2844 18.1866 63.2844 18.1681 63.3099 18.1681C63.4373 18.1496 63.5647 18.1311 63.6921 18.1681Z" fill="white"/>
<path d="M90.4973 17.7059C90.6757 17.6874 90.8286 17.669 90.9815 17.7059C90.956 17.7244 90.905 17.7429 90.8796 17.7429C90.7521 17.7429 90.6247 17.7614 90.4973 17.7059Z" fill="white"/>
<path d="M116.258 19.148C116.232 19.1295 116.207 19.1295 116.181 19.111C116.207 19.0925 116.232 19.074 116.258 19.0555C116.334 19.037 116.411 19.0925 116.36 19.111C116.334 19.148 116.309 19.148 116.258 19.148Z" fill="white"/>
<path d="M110.346 18.7782C110.194 18.8152 110.066 18.8891 109.888 18.8522C109.862 18.8522 109.862 18.8337 109.862 18.8152C109.862 18.7967 109.862 18.7782 109.888 18.7782C110.041 18.7412 110.194 18.7967 110.346 18.7782Z" fill="white"/>
<path d="M103.492 18.2975C103.441 18.2975 103.416 18.279 103.416 18.2421C103.416 18.2236 103.441 18.2236 103.467 18.2236C103.492 18.2051 103.543 18.2051 103.569 18.2051C103.594 18.2051 103.645 18.2236 103.671 18.2421C103.645 18.2606 103.62 18.2975 103.594 18.2975C103.569 18.2975 103.518 18.2975 103.492 18.2975Z" fill="white"/>
<path d="M73.4765 18.4639C73.4511 18.4454 73.4256 18.4454 73.4001 18.4269C73.4256 18.4269 73.4256 18.4085 73.4511 18.4085C73.4765 18.4085 73.5275 18.4085 73.553 18.4085C73.6039 18.4085 73.6294 18.4269 73.6039 18.4454C73.6039 18.4454 73.5785 18.4639 73.553 18.4639C73.553 18.4639 73.5275 18.4639 73.4765 18.4639Z" fill="white"/>
<path d="M48.2511 18.5564C48.2256 18.5379 48.1747 18.5379 48.1492 18.5194C48.1237 18.5009 48.1747 18.4639 48.2511 18.4639C48.2766 18.4639 48.302 18.4639 48.302 18.4639C48.3275 18.4824 48.353 18.5009 48.3785 18.5194C48.353 18.5379 48.3275 18.5379 48.2766 18.5564C48.2766 18.5564 48.2766 18.5564 48.2511 18.5564Z" fill="white"/>
<path d="M63.259 17.9832C63.1316 17.9832 63.0806 17.9648 63.1316 17.9463C63.157 17.9463 63.208 17.9463 63.2335 17.9463C63.259 17.9463 63.2844 17.9648 63.3099 17.9832C63.3099 17.9832 63.2844 17.9832 63.259 17.9832Z" fill="white"/>
<path d="M85.2484 18.4269C85.2229 18.4454 85.172 18.4454 85.1465 18.4454C85.0955 18.4454 85.0701 18.4085 85.0955 18.39C85.121 18.3715 85.172 18.353 85.1975 18.3715C85.2229 18.3715 85.2229 18.4085 85.2484 18.4269Z" fill="white"/>
<path d="M92.4848 17.7059C92.4084 17.7059 92.3829 17.7244 92.3574 17.7244C92.3319 17.7244 92.3064 17.7244 92.281 17.7059C92.3064 17.7059 92.3064 17.7059 92.3319 17.7059C92.3829 17.7059 92.4084 17.7059 92.4848 17.7059Z" fill="white"/>
<path d="M71.1833 17.7059C71.1069 17.7429 71.005 17.7799 70.9285 17.7984C70.903 17.7984 70.8775 17.7799 70.8521 17.7614L70.8776 17.7244C70.9795 17.7244 71.0814 17.7244 71.1833 17.7059Z" fill="white"/>
<path d="M81.9869 18.4824C82.0379 18.4454 82.0634 18.4085 82.1143 18.39C82.1398 18.3715 82.1908 18.3715 82.2163 18.39C82.2417 18.4085 82.2672 18.4454 82.2672 18.4639C82.2672 18.5009 82.2417 18.5564 82.2417 18.5933L82.2672 18.5748C82.1653 18.5379 82.0889 18.5009 81.9869 18.4824Z" fill="white"/>
<path d="M75.1837 17.6874C75.2092 17.7059 75.2347 17.7244 75.2602 17.7429C75.2347 17.7614 75.2092 17.7799 75.1837 17.7799C75.1073 17.7799 75.0563 17.7244 75.0818 17.7059C75.1073 17.7059 75.1328 17.7059 75.1837 17.6874Z" fill="white"/>
<path d="M148.924 16.0605C148.873 16.0605 148.847 16.042 148.847 16.0236C148.847 16.0051 148.924 16.0051 148.949 16.0051C148.975 16.0051 149 16.0236 149 16.0236C149 16.042 148.975 16.0605 148.924 16.0605Z" fill="white"/>
<path d="M64.2782 17.8908C64.2782 17.8723 64.2782 17.8723 64.3036 17.8538C64.3291 17.8538 64.3291 17.8538 64.3546 17.8538C64.3546 17.8538 64.3801 17.8723 64.3801 17.8908C64.3546 17.8908 64.3546 17.9093 64.3291 17.9093C64.3291 17.9093 64.3036 17.9093 64.2782 17.8908Z" fill="white"/>
<path d="M131.113 20.3497C131.138 20.3497 131.164 20.3312 131.215 20.3312C131.215 20.3312 131.24 20.3497 131.24 20.3681C131.215 20.3681 131.189 20.3866 131.138 20.3866C131.113 20.3866 131.113 20.3681 131.113 20.3497Z" fill="white"/>
<path d="M105.403 18.0202C105.378 18.0202 105.352 18.0202 105.352 18.0017C105.352 17.9648 105.378 17.9648 105.429 17.9648L105.454 17.9832C105.454 18.0017 105.429 18.0017 105.403 18.0202Z" fill="white"/>
<path d="M75.2602 18.0942L75.2347 18.0757C75.2602 18.0572 75.2856 18.0572 75.3111 18.0942C75.3111 18.0757 75.2856 18.0942 75.2602 18.0942Z" fill="white"/>
<path d="M76.1775 17.8169C76.1775 17.7984 76.152 17.7984 76.152 17.7799C76.152 17.7614 76.1774 17.7614 76.2029 17.7614C76.2539 17.7614 76.2539 17.7984 76.2284 17.8169C76.2029 17.8169 76.1775 17.8169 76.1775 17.8169Z" fill="white"/>
<path d="M77.2986 17.8169C77.2731 17.8169 77.2731 17.8353 77.2476 17.8353C77.2221 17.8353 77.2221 17.8169 77.1967 17.8169C77.2221 17.8169 77.2221 17.7984 77.2476 17.7984C77.2731 17.7799 77.2731 17.7984 77.2986 17.8169Z" fill="white"/>
<path d="M143.369 22.9749C143.343 22.9749 143.343 22.9564 143.318 22.9564L143.343 22.9379C143.394 22.9379 143.42 22.9379 143.394 22.9749C143.42 22.9749 143.394 22.9749 143.369 22.9749Z" fill="white"/>
<path d="M88.6883 18.4085C88.6883 18.39 88.6628 18.39 88.6628 18.3715L88.6883 18.353C88.7392 18.353 88.7392 18.3715 88.7137 18.4085C88.7392 18.4085 88.7137 18.4085 88.6883 18.4085Z" fill="white"/>
<path d="M60.9403 18.0202C60.9403 18.0017 60.9148 18.0017 60.9148 17.9832C60.9403 17.9832 60.9403 17.9648 60.9657 17.9648C61.0167 17.9648 61.0422 17.9832 61.0167 18.0017C60.9912 18.0202 60.9657 18.0202 60.9403 18.0202Z" fill="white"/>
<path d="M100.358 18.5564C100.333 18.5379 100.307 18.5194 100.282 18.5194C100.307 18.5194 100.307 18.5009 100.333 18.5009C100.358 18.5009 100.409 18.5009 100.409 18.5194C100.435 18.5379 100.384 18.5564 100.358 18.5564Z" fill="white"/>
<path d="M74.2155 17.7799C74.1645 17.7614 74.139 17.7429 74.1645 17.7244C74.19 17.7059 74.241 17.7059 74.2664 17.7059L74.2919 17.7429C74.2664 17.7614 74.241 17.7614 74.2155 17.7799Z" fill="white"/>
<path d="M144.617 23.0304L144.643 23.0489L144.617 23.0489L144.617 23.0304Z" fill="white"/>
<path d="M130.043 20.7749C130.094 20.7564 130.145 20.7194 130.196 20.7009C130.221 20.7009 130.247 20.7009 130.247 20.7009C130.272 20.7194 130.272 20.7564 130.221 20.7564C130.145 20.7749 130.094 20.7749 130.043 20.7749Z" fill="white"/>
<path d="M10.6422 18.6118C10.6168 18.6118 10.6168 18.6303 10.5913 18.6303C10.5403 18.6118 10.5403 18.5933 10.5913 18.5933C10.5913 18.5933 10.6168 18.6118 10.6422 18.6118Z" fill="white"/>
<path d="M72.865 17.7244C72.8905 17.7244 72.8905 17.7059 72.916 17.7059C72.9415 17.7059 72.9415 17.7244 72.9669 17.7244C72.9415 17.7244 72.9415 17.7429 72.916 17.7429C72.8905 17.7429 72.865 17.7244 72.865 17.7244Z" fill="white"/>
<path d="M68.4569 18.5194L68.4824 18.5009L68.5079 18.5194L68.4824 18.5379L68.4569 18.5194Z" fill="white"/>
<path d="M113.965 18.6118L113.99 18.5933L114.016 18.6118L113.965 18.6118Z" fill="white"/>
<path d="M118.22 19.2219L118.22 19.1849C118.22 19.2034 118.194 19.2219 118.22 19.2219Z" fill="white"/>
</svg>
